<svg xmlns="http://www.w3.org/2000/svg" xmlns:xlink="http://www.w3.org/1999/xlink" id="Layer_1" x="0px" y="0px" viewBox="0 0 65 65" style="enable-background:new 0 0 65 65;" xml:space="preserve"><style type="text/css">	.st0{fill:#D6A998;}	.st1{fill-rule:evenodd;clip-rule:evenodd;fill:#D6A998;}</style><g>	<g>		<path class="st0" d="M40.4,31.1c-4.4,0-8.8,0-13.2,0c-0.6,0-1.3,0-1.9,0c0.1,0,0.1,0,0.2,0c0-3.5,0-7.1,0-10.6   c-0.2,0-0.3,0.1-0.5,0.1c4.4,0,8.8,0,13.2,0c0.6,0,1.3,0,1.9,0c-0.1,0-0.1,0-0.2,0c0,3.5,0,7.1,0,10.6c0,0.1,0.7,0.1,0.7-0.1   c0-3.5,0-7.1,0-10.6c0,0-0.2,0-0.2,0c-4.4,0-8.8,0-13.2,0c-0.6,0-1.3,0-1.9,0c-0.1,0-0.5,0-0.5,0.1c0,3.5,0,7.1,0,10.6   c0,0,0.2,0,0.2,0c4.4,0,8.8,0,13.2,0c0.6,0,1.3,0,1.9,0C40.2,31.3,40.8,31.1,40.4,31.1z"></path>	</g>	<polygon class="st0" points="35.3,6 33.2,6 33.2,3.7 31.8,3.7 31.8,6 29.8,6 29.8,7.4 31.8,7.4 31.8,12.8 33.2,12.8 33.2,7.4   35.3,7.4  "></polygon>	<g>		<path class="st0" d="M46.1,32c0,3.5,0,7.1,0,10.6c0.4-0.5,0.8-1.1,1.1-1.6c-1,0-2.1,0-3.1,0c-0.1,0-1.1,1.5-1.1,1.6   c0,7.1,0,14.2,0,21.2c0.4-0.5,0.8-1.1,1.1-1.6c-3.7,0-7.3,0-11,0c-2.5,0-5.1,0-7.6,0c-0.6,0-3.4,0.4-3.9,0c-0.3-0.3,0-2.7,0-3.1   c0-2.5,0-5,0-7.5c0-2.6,0-5.1,0-7.7c0-0.9,0.3-2.6-0.3-2.9c-0.7-0.4-1.8,0.4-2.2-0.3c-0.4-0.7,0-2.7,0-3.5c0-2.3,0-4.6,0-6.9   c-0.4,0.5-0.8,1.1-1.1,1.6C27.3,32,36.7,32,46.1,32c0.4,0,0.8-1.6,1.1-1.6c-9.4,0-18.8,0-28.2,0c-0.1,0-1.1,1.5-1.1,1.6   c0,2,0,3.9,0,5.9c0,1.1-0.5,4.3,0.3,4.8c0.5,0.3,1.8-0.3,2.2,0.1c0.2,0.2,0,1.3,0,1.5c0,2.3,0,4.6,0,6.9c0,2.6,0,5.3,0,7.9   c0,0.8-0.5,4,0,4.7c0.3,0.4,1.8,0.2,2.4,0.2c2.3,0,4.7,0,7,0c4.4,0,8.7,0,13.1,0c0.1,0,1.1-1.5,1.1-1.6c0-7.1,0-14.2,0-21.2   c-0.4,0.5-0.8,1.1-1.1,1.6c1,0,2.1,0,3.1,0c0.1,0,1.1-1.5,1.1-1.6c0-3.5,0-7.1,0-10.6C47.2,30.9,46.1,31.5,46.1,32z"></path>	</g>	<g>		<path class="st0" d="M39.5,61.9c-4.6,0-9.1,0-13.7,0c0,0.7,0,1.3,0.1,2c0-7-0.3-14.1,0-21c0.3-6.9,9.8-9.5,13-3   c0.1,0.3,0.8,2.3,0.6,1c0,0.1,0,0.2,0,0.3c0.1,0.6,0,1.2,0,1.9c0,2.3,0,4.5,0,6.8C39.5,53.9,39.5,57.9,39.5,61.9   c0,0.6,0.1,1.5,0.1,2c0-7.3,0.2-14.6,0-21.9c-0.1-2.6-0.6-4.9-2.8-6.6c-2.8-2.1-6.8-1.7-9.1,0.9c-2.7,2.9-1.8,8.1-1.8,11.8   c0,4.6,0,9.3,0,13.9c0,0.2,0,2,0.1,2c4.6,0,9.1,0,13.7,0C39.6,63.9,39.5,61.9,39.5,61.9z"></path>	</g>	<path class="st0" d="M33.7,24c-0.3-0.3-0.6-0.4-1-0.4c-0.8,0-1.4,0.6-1.4,1.4v6.2h2.9V25C34.1,24.6,33.9,24.3,33.7,24z M31.4,27.1  c0-0.5,0.2-0.9,0.5-1.3c0-0.1,0.1,0,0.1,0.1C31.7,26.2,31.7,26.7,31.4,27.1C31.4,27.1,31.4,27.1,31.4,27.1z M31.8,28.6  C31.8,28.6,31.7,28.6,31.8,28.6c-0.1-0.2,0-0.4,0-0.6c0-0.1,0.1-0.1,0.1,0C31.9,28.2,31.8,28.4,31.8,28.6z M31.5,28  c0,0.1-0.1,0-0.1,0c0-0.5,0.3-0.9,0.5-1.3c0-0.1,0.1,0,0.1,0C31.9,27.1,31.7,27.6,31.5,28z M32.4,24.1c-0.4,0.6-0.7,1.2-0.8,1.9  c0,0.1-0.1,0-0.1,0c0-0.7,0.4-1.4,0.8-1.9C32.4,24,32.5,24.1,32.4,24.1z"></path>	<path class="st1" d="M27.8,4.5C28.2,4.6,28.6,4.8,29,5c0.2,0.1,0.4-0.2,0.2-0.3c-0.4-0.3-0.8-0.5-1.3-0.6c-0.4-0.1-0.9-0.2-1.2,0  c-0.1,0-0.1,0.1,0,0.2C27,4.5,27.4,4.4,27.8,4.5z"></path>	<path class="st1" d="M26.1,5.4c0.2,0.1,0.5,0.1,0.8,0.1c0.3,0,0.6,0.1,0.9,0.2c0.2,0,0.3-0.3,0.1-0.3c-0.3-0.1-0.6-0.1-0.9-0.2  c-0.3,0-0.6-0.1-0.9,0C26,5.1,26,5.3,26.1,5.4z"></path>	<path class="st1" d="M30.8,2.2c-0.1-0.2-0.2-0.4-0.3-0.6c-0.1-0.2-0.1-0.4-0.2-0.6c0-0.1-0.2-0.1-0.2,0c-0.2,0.4,0.2,1,0.4,1.3  C30.7,2.5,30.9,2.4,30.8,2.2z"></path>	<path class="st1" d="M36.5,3.5c0.2-0.3,0.5-0.6,0.8-0.9c0.2-0.2,0.3-0.3,0.5-0.5C38,2.1,38.1,2,38.2,1.9c0-0.1,0-0.2-0.1-0.2  c-0.3,0-0.7,0.3-0.9,0.5c-0.3,0.3-0.6,0.7-0.9,1C36.1,3.5,36.4,3.7,36.5,3.5z"></path>	<path class="st1" d="M37.9,4.3c0.6-0.3,1.1-0.7,1.6-1.1c0.1-0.1,0-0.2-0.1-0.2c-0.6,0.2-1.1,0.7-1.7,1C37.5,4.1,37.7,4.4,37.9,4.3z  "></path>	<path class="st1" d="M36.1,8.3c0.3,0,0.5-0.1,0.7-0.2c0.1,0,0.1-0.1,0.1-0.2c0-0.1-0.1-0.2-0.2-0.2c-0.1,0-0.2,0.1-0.2,0.1  C36.3,7.9,36.2,8,36.1,8C35.8,8,35.8,8.4,36.1,8.3z"></path>	<path class="st1" d="M40.9,36.5c0.1,0.1,0.2,0,0.2-0.1c-0.4-1.5-1.6-2.7-2.7-3.8c-0.1-0.1-0.2,0-0.1,0.1  C39.3,33.9,40.3,35,40.9,36.5z"></path>	<path class="st1" d="M41.5,34.4c-0.1-0.1-0.3-0.1-0.2,0.1c0.6,1.8,1,3.5,1.2,5.4c0,0.2,0.2,0.2,0.2,0C42.7,38,42.2,36.1,41.5,34.4z  "></path>	<path class="st0" d="M32.7,46.6c-2.1,0-3.9,1.7-3.9,3.9v12.6h7.7V50.5C36.6,48.4,34.8,46.6,32.7,46.6z M29.4,60.9  c0,0.1-0.1,0.1-0.1,0c-0.4-0.5-0.2-1.4-0.1-2c0-0.1,0.2-0.1,0.2,0c0,0.4,0.1,0.7,0.1,1.1C29.5,60.3,29.5,60.6,29.4,60.9z   M29.8,61.7c0,0.1-0.1,0.1-0.1,0c-0.2-0.5-0.1-1.2-0.1-1.8c0-0.1,0.2-0.1,0.2,0C29.8,60.5,30,61.2,29.8,61.7z M30.3,62.7  c-0.4-0.7-0.3-1.6-0.2-2.4c0-0.2,0.3-0.2,0.2,0c0,0.4,0,0.9,0.1,1.3c0.1,0.3,0.2,0.7,0.1,1C30.5,62.7,30.4,62.8,30.3,62.7z   M35.2,50.3c0,0.2-0.3,0.2-0.2,0c0-0.4,0-0.9-0.1-1.3c-0.1-0.3-0.2-0.7-0.1-1c0-0.1,0.2-0.2,0.2-0.1C35.4,48.6,35.3,49.5,35.2,50.3  z M35.5,50.7c-0.1-0.6-0.2-1.3,0-1.8c0-0.1,0.1-0.1,0.1,0c0.2,0.5,0.1,1.2,0.1,1.8C35.7,50.8,35.5,50.8,35.5,50.7z M36,51.7  c0,0.1-0.2,0.1-0.2,0c0-0.4-0.1-0.7-0.1-1.1c0-0.3-0.1-0.6,0-0.9c0-0.1,0.1-0.1,0.1,0C36.4,50.2,36.1,51.1,36,51.7z"></path>	<path class="st0" d="M33.9,44v-4.7c0-0.3-0.1-0.6-0.3-0.8c-0.2-0.2-0.5-0.4-0.8-0.4c-0.6,0-1.1,0.5-1.1,1.2V44h-1.3v0.8h4.2  c-0.3-0.1-0.6-0.4-0.8-0.5c0,0,0-0.1,0-0.1c0.3,0.2,0.6,0.3,0.8,0.6c0,0,0,0,0,0.1h0.5V44H33.9z M33.2,44.5  c-0.5-0.1-0.9-0.5-1.2-0.9c0,0,0-0.1,0.1-0.1C32.4,43.9,32.8,44.1,33.2,44.5C33.3,44.4,33.3,44.5,33.2,44.5z M34,44.7  C34,44.7,34,44.7,34,44.7c-0.3,0-0.6-0.3-0.8-0.5c0,0,0-0.1,0.1-0.1C33.4,44.3,33.7,44.4,34,44.7z M35,44.7c-0.1,0-0.3-0.1-0.4-0.1  c-0.1,0,0-0.1,0-0.1C34.8,44.5,34.9,44.6,35,44.7C35.1,44.7,35.1,44.7,35,44.7z"></path>	<path class="st0" d="M34,13.5c-0.1-0.3-0.2-0.5-0.4-0.7c-0.3-0.3-0.7-0.4-1.1-0.4c-0.7,0-1.4,0.5-1.5,1.3C32,13.4,33,13.4,34,13.5z  "></path>	<path class="st0" d="M40.4,20.2c0,0.1-0.2,0.2-0.3,0c-0.5-1.5-1.4-2.6-2.4-3.7c-0.1-0.1,0.1-0.3,0.2-0.2c0.7,0.4,1.2,1.1,1.7,1.8  c-0.5-1-1.2-1.9-2.1-2.6c-0.8-0.7-1.8-1.2-2.8-1.5c0.6,0.6,1,1.4,1.5,2.1c0.1,0.1-0.1,0.3-0.2,0.2c-0.6-0.8-1.3-1.5-1.8-2.4  c0,0,0,0,0,0c-0.4,0-0.7,0-1,0c0.3,0.2,0.6,0.5,0.9,0.7c0.1,0.1,0,0.3-0.2,0.2c-0.3-0.3-0.7-0.6-1-0.9c0,0,0,0,0,0  c-1.1,0.1-2.1,0.3-3.1,0.6c-0.1,0-0.1,0-0.2-0.1c-0.4,0.2-0.7,0.4-1.1,0.6c0.6-0.2,1.3-0.2,2-0.2c0.2,0,0.2,0.3,0,0.3  c-0.9,0-1.8,0.3-2.7,0.5c-0.2,0.2-0.4,0.4-0.6,0.5c0.6-0.1,1.2-0.1,1.8-0.2c0.2,0,0.3,0.2,0.1,0.3c-0.8,0.2-1.6,0.4-2.4,0.5  c-0.1,0.2-0.3,0.3-0.4,0.5c0,0,0.1,0,0.1,0c0.2-0.1,0.3,0.2,0.1,0.2c-0.2,0.1-0.3,0.2-0.5,0.2c-0.4,0.6-0.6,1.3-0.8,2  c-0.2,0.6-1.8,1.2-1.8,1.9h18.3C41.6,21,40.9,20.6,40.4,20.2z M37.5,17.3c-0.4-0.9-1.1-1.5-1.7-2.4c-0.1-0.1,0.1-0.2,0.2-0.1  c0.8,0.6,1.3,1.5,1.8,2.4C37.9,17.4,37.6,17.5,37.5,17.3z"></path></g></svg>
