<svg xmlns="http://www.w3.org/2000/svg" xmlns:xlink="http://www.w3.org/1999/xlink" id="Layer_1" x="0px" y="0px" viewBox="0 0 65 65" style="enable-background:new 0 0 65 65;" xml:space="preserve"><style type="text/css">	.st0{fill-rule:evenodd;clip-rule:evenodd;fill:#D6A998;}</style><g>	<path class="st0" d="M36.7,12.7c0.5,0.1,1,0.3,1.4,0.6c0.2,0.1,0.4-0.2,0.2-0.3c-0.5-0.3-0.9-0.5-1.5-0.7c-0.4-0.1-1-0.3-1.4,0  c-0.1,0-0.1,0.2,0,0.2C35.8,12.7,36.3,12.7,36.7,12.7z"></path>	<path class="st0" d="M34.8,13.7c0.3,0.1,0.6,0.1,0.9,0.1c0.4,0,0.7,0.1,1,0.2c0.3,0,0.4-0.3,0.1-0.4c-0.3-0.1-0.7-0.1-1-0.2  c-0.3-0.1-0.7-0.1-1,0C34.7,13.4,34.7,13.6,34.8,13.7z"></path>	<path class="st0" d="M43.6,11.4c-0.1-0.2-0.2-0.4-0.3-0.6c-0.1-0.2-0.1-0.4-0.2-0.6c0-0.1-0.2-0.1-0.2,0c-0.2,0.5,0.2,1.1,0.5,1.5  C43.4,11.8,43.7,11.6,43.6,11.4z"></path>	<path class="st0" d="M50,12.9c0.3-0.3,0.6-0.7,0.9-1c0.2-0.2,0.4-0.4,0.6-0.5c0.2-0.1,0.3-0.2,0.4-0.4c0-0.1,0-0.2-0.1-0.2  c-0.4,0-0.8,0.4-1,0.6c-0.4,0.4-0.7,0.8-1,1.2C49.6,12.8,49.8,13.1,50,12.9z"></path>	<path class="st0" d="M51.5,13.7c0.6-0.4,1.2-0.8,1.8-1.2c0.1-0.1,0-0.3-0.1-0.2c-0.7,0.3-1.2,0.7-1.9,1.1  C51.1,13.5,51.3,13.8,51.5,13.7z"></path>	<path class="st0" d="M53.9,16.2c0.3,0,0.5-0.1,0.8-0.2c0.1,0,0.1-0.1,0.1-0.2c0-0.1-0.1-0.2-0.2-0.2c-0.1,0-0.2,0.1-0.3,0.1  c-0.1,0.1-0.3,0.1-0.4,0.1C53.6,15.8,53.6,16.2,53.9,16.2z"></path>	<path class="st0" d="M37.1,51.3c0,0,0.1,0.1,0.1,0.1c0,0,0,0,0,0C37.2,51.3,37.1,51.3,37.1,51.3C37.1,51.2,37,51.3,37.1,51.3z"></path>	<path class="st0" d="M54,28c-1.8-1.2-4-1.9-6.3-2.2c0,0,0,0,0-0.1c1-1.3,2.2-2.4,3.3-3.7c0.4-0.5,0.8-1,1.1-1.6  c0.2-0.3,0.5-0.6,0.6-1c0,0,0-0.1,0-0.1c0.1-0.2,0.2-0.3,0.3-0.5c0.2,0,0.3-0.2,0.2-0.4c-1.8-1.9-3.6-3.6-5.2-5.8  c-0.1-0.1-0.2-0.1-0.2-0.1c0,0,0,0,0,0c0-0.2-0.4-0.1-0.3,0c0.1,1.4,0.3,2.8,0.6,4.2c-0.4-0.4-0.8-0.8-1.2-1.2  c-0.7-0.8-1.4-1.6-2.3-2.2c0,0,0-0.1,0-0.1c0,0,0,0,0-0.1c0,0,0.1,0,0.1,0c0.6,0,1.3,0.1,2-0.1c0,0,0,0,0,0c0.1,0,0.2,0,0.3,0  c0,0,0,0,0,0c0,0,0,0,0,0c0.1,0.1,0.4,0,0.3-0.2c0,0,0-0.1-0.1-0.1c0,0,0-0.1,0-0.1c0-0.1-0.1-0.3-0.2-0.3c-0.2,0-0.3,0-0.5,0  c-0.1,0-0.2,0-0.2,0.1c0,0,0,0.1,0,0.1c-0.7,0-1.4,0.1-2.1,0.1c-1,0-2-0.1-3-0.1c-0.1,0-0.2,0.1-0.2,0.1c0,0-0.1,0-0.1,0  c-0.9,0.8-1.5,1.9-2.2,2.8c-0.5,0.6-0.9,1.2-1.4,1.8c-0.1,0.2-0.4,0.6-0.6,0.8c-0.1,0-0.2,0.1-0.2,0.2c0,0,0,0.1,0.1,0.1  c0,0-0.1,0.1,0,0.1c0.6,1.6,2.2,3.1,3.4,4.3c0.8,0.8,1.8,1.8,2.8,2.5c-1.2-0.3-2.8,0.1-4.2,0.9C36.6,24,34,22,30.8,20.7  c-7.6-3.1-16.9-0.9-21.3,6.1c0,0-0.1,0-0.1,0c-3.3,3.3-3.9,8.9-3.1,13.3c0.9,5.2,3.8,9.4,8.3,12.1c6.4,3.9,14.9,3.2,20.6-1.2  c0.7,0.7,1.6,1.3,2.5,1.8c6.7,3.8,14.9,2.5,19.3-3.9C61.4,42.4,60.8,32.5,54,28z M47.2,24.7c-0.2,0.2-0.4,0.3-0.7,0.5  c0.2-0.5,0.4-1,0.5-1.6c0.2-0.6,0.4-1.1,0.7-1.6c0.1-0.2-0.1-0.3-0.2-0.1c0,0,0,0,0,0c0.3-1,0.6-2,1-3c0,0,0,0,0,0  c0.1,0,0.1-0.1,0.1-0.1c0.4,0.9,0.9,1.7,1.4,2.5c-0.2,0.3-0.4,0.6-0.7,0.9c-0.5,0.7-1,1.3-1.5,2C47.7,24.3,47.5,24.6,47.2,24.7z   M46.1,25c-0.1,0.2-0.1,0.4-0.2,0.6c-0.2,0-0.5,0-0.7,0c-0.1-1-0.2-2-0.3-3.1c1.2-1,2.1-2.3,3-3.5c-0.7,1.6-1.2,3.5-1.6,5.2  c-0.1,0.2-0.1,0.4-0.2,0.6C46.1,24.9,46.1,25,46.1,25z M44.5,22.2c0,0.1,0,0.1,0,0.2c0,0,0,0,0,0.1c0,0,0-0.1-0.1-0.1  c-1.2-1-2.2-2.2-3.3-3.3c1.9,0.6,4.3,0.5,6.2,0.1c-0.8,1-1.5,2.1-2.5,3C44.7,22,44.5,22,44.5,22.2z M44.8,25.6c-0.1,0-0.3,0-0.4,0  c-0.9-1-1.7-1.9-2.3-3.1c-0.5-1-1-1.9-1.5-2.9c0,0,0,0,0-0.1c0-0.1-0.1-0.2-0.1-0.3c0.1,0,0.2,0,0.3,0c0.1,0,0.1,0,0.1,0  c1.1,1.2,2.1,2.5,3.4,3.4c0.1,0.1,0.3,0,0.3-0.1c0,0,0,0.1,0,0.1C44.6,23.6,44.6,24.6,44.8,25.6z M49.5,23.1  c-0.4,0.4-0.8,0.9-1.2,1.3c0.5-0.8,1.1-1.5,1.7-2.3c0.1-0.1,0.2-0.3,0.3-0.4c0,0,0,0.1,0.1,0.1c-0.3,0.3-0.6,0.7-0.9,1  C49.4,22.9,49.4,23,49.5,23.1z M51.9,19.8c-0.1,0.1-0.1,0.2-0.2,0.4c0,0,0,0,0,0c-0.2,0.2-0.3,0.4-0.5,0.6  c-0.2,0.2-0.4,0.4-0.5,0.6c0,0,0-0.1-0.1-0.1c0.5-0.6,1.1-1.3,1.5-2.1C52,19.5,51.9,19.7,51.9,19.8z M52.2,19.1  c0-0.1-0.1-0.1-0.2,0c-0.6,0.6-1.1,1.3-1.7,1.9c-0.4-0.7-0.8-1.5-1.2-2.2c1,0.1,2.1,0.2,3.1,0.2C52.2,19,52.2,19,52.2,19.1z   M47.8,13.1c1.3,2.1,3.2,3.7,4.9,5.5c0,0,0,0,0,0c0-0.1-0.1-0.1-0.2-0.1c-1.2,0-2.4,0-3.6-0.2c0,0,0-0.1,0-0.1  c0.1,0,0.2-0.1,0.1-0.2c-0.1-0.2-0.3-0.3-0.4-0.5C48.1,16.1,48,14.6,47.8,13.1z M46.5,15.9c0.5,0.5,1,1.3,1.6,1.8c0,0,0,0.1,0,0.1  c0.1,0.1,0.1,0.2,0.2,0.3c0,0,0,0,0,0c0,0,0,0-0.1,0c-0.1,0-0.1,0-0.2,0c-0.1,0.1-0.2,0.2-0.2,0.3c-2.3,0.3-4.9,0.6-7.1-0.1  c0.6-0.6,1.1-1.3,1.6-2c0.7-0.9,1.5-1.8,2-2.8C45.1,14.4,45.8,15.2,46.5,15.9z M41.4,13.1c1,0,2,0.1,2.9,0.1c0,0,0,0,0,0  c0,0,0,0,0,0c-0.2-0.1-0.3,0.1-0.2,0.2c-0.6,0.6-1.1,1.5-1.6,2.2c-0.7,0.9-1.4,1.8-2.1,2.7c0,0-0.1,0-0.1,0  C40.6,16.7,41.1,14.9,41.4,13.1z M38.4,16.8c0.8-1.1,1.7-2.2,2.5-3.3c-0.3,1.7-0.9,3.4-1.2,5.2c0,0,0,0,0,0c0,0,0,0,0,0.1  c-0.3,0-0.5,0-0.7,0c-0.5,0-1.6,0.1-2-0.3C37.5,18.2,38.2,17.1,38.4,16.8z M37,19c0.3,0.1,0.7,0.2,1,0.2c0.6,0.1,1.3,0.1,1.9,0.1  c-0.4,0.8-0.7,1.7-0.7,2.6C38.2,21,37.4,20,37,19z M40.2,22.8c-0.2-0.2-0.5-0.5-0.7-0.7c0.2-0.5,0.2-1.1,0.4-1.6  c0.1-0.3,0.2-0.6,0.3-1c0.1,0.2,0.1,0.3,0.2,0.5C40.2,21,40,22,40.2,22.8c0.1,0.1,0.2,0.1,0.2,0c0.2-0.7,0.2-1.5,0.2-2.3  c0,0.1,0.1,0.2,0.1,0.3c0,0-0.1,0-0.1,0.1c0.1,0.4,0.1,0.8,0.1,1.2c0,0.4-0.1,0.8,0.1,1.2C40.5,23.2,40.3,23,40.2,22.8z M40.8,23.5  C40.9,23.5,40.9,23.4,40.8,23.5c0.2-0.5,0.2-0.9,0.1-1.3c0-0.3-0.1-0.7-0.1-1c0.1,0.2,0.2,0.5,0.3,0.7c-0.1,0-0.1,0.1-0.1,0.1  c0,0.3,0,0.6,0,0.8c0,0.3-0.1,0.5,0.1,0.8c0,0.1,0.1,0.1,0.2,0c0.1-0.2,0.1-0.4,0.1-0.6c0-0.2,0-0.5,0-0.7c0.1,0.2,0.2,0.3,0.3,0.5  c0,0-0.1,0.1-0.1,0.1c0,0.3,0,0.6,0,0.9c0,0.1,0,0.3,0.1,0.4C41.4,23.9,41.1,23.7,40.8,23.5z M41.9,24.4  C41.9,24.4,41.9,24.4,41.9,24.4c0.2-0.2,0.1-0.4,0.1-0.6c0-0.2,0-0.4,0-0.5c0,0.1,0.1,0.2,0.2,0.3c-0.1,0-0.1,0.1-0.1,0.1  c0,0.3,0.1,0.9,0.3,1.1c0.1,0,0.2,0,0.2,0c0-0.2,0-0.3-0.1-0.4c0-0.1-0.1-0.2-0.1-0.3c0.2,0.4,0.5,0.8,0.9,1.2  c-0.1,0-0.2,0-0.2,0.1C42.6,25,42.2,24.7,41.9,24.4z M33.6,51.6c-0.1,0-0.1,0.1-0.2,0.1c-0.1,0-0.1,0.1-0.2,0.1  c-4.1,2.3-9.3,2.9-14,1.7c0,0,0-0.1-0.1-0.1c-4-2-7.2-4.5-9.7-8.3C5.9,39.8,7.5,35,8.7,29.4c0-0.1-0.1-0.2-0.2-0.1  c-2,5.1-2.7,10.3,0,15.2c1.7,3.2,4.7,6.3,8.1,8.1c-0.3-0.1-0.6-0.3-1-0.4C7,48,4.2,36.5,8.7,28.5c0,0.2,0.3,0.3,0.5,0.1  c3.7-7.4,11.7-10,19.5-8c3.8,0.9,7.1,3.1,9.6,6.1c-0.3,0.2-0.7,0.4-1,0.6c0,0-0.1,0-0.1,0c-0.1-0.1-0.2-0.2-0.3-0.3  c-0.1-0.1-0.3,0-0.3,0.1c-0.1-0.1-0.2-0.2-0.3-0.2c-0.2-0.2-0.4,0-0.4,0.2c-0.2-0.1-0.3-0.3-0.5-0.4c-0.1-0.1-0.2,0-0.3,0  c-0.2-0.2-0.5-0.5-0.8-0.7c-0.1-0.1-0.3,0-0.2,0.1c-5.1-4.3-14.7-4.5-19.5,0.2c-4.2,3.5-5.5,8.3-4.3,12.9c-0.1,0-0.2,0.1-0.2,0.2  c1.1,5.6,5.4,11.3,11.5,11.7c0.1,0,0.1,0,0.1-0.1c1.8,0.5,3.7,0.7,5.6,0.5c0.5,0.3,1.2,0.5,1.8,0.5c0.1,0,0.1-0.1,0-0.1  c-0.3-0.2-0.7-0.2-1-0.3c-0.1,0-0.2-0.1-0.3-0.1c0.3-0.1,0.6-0.1,0.9-0.2c0,0.1,0,0.1,0.1,0.2c0.5,0.2,1.5,0.6,1.9-0.1  c0-0.1,0-0.2-0.1-0.2c-0.2,0-0.4,0.1-0.7,0.1c-0.3,0-0.6,0-0.9-0.1c0.3-0.1,0.6-0.2,1-0.3c0,0,0,0.1,0.1,0.1  c0.2,0.1,0.5,0.1,0.7,0.1c0.3,0,0.5-0.1,0.7-0.2c0.1,0,0-0.1,0-0.1c-0.3,0-0.7,0-1,0c0.1-0.1,0.2-0.2,0.1-0.3  c0.5-0.2,0.9-0.4,1.4-0.7c-0.2,0.2-0.4,0.4-0.6,0.5c-0.1,0.1,0,0.3,0.2,0.2c1.5-1,3.1-2.3,4-3.9c1.8-2.5,2.8-5.4,3-8.5  c0,0.1,0.1,0.1,0.2,0c0.5-0.5,0.6-1.3,0.8-1.9c0.1-0.2-0.2-0.3-0.3-0.1c-0.2,0.6-0.6,1.2-0.7,1.8c0.1-1.2,0-2.5-0.2-3.7  c0,0,0.1,0,0.1,0c0.2-0.4,0.2-0.9,0.3-1.3c0-0.1-0.1-0.1-0.2,0c-0.1,0.4-0.2,0.8-0.2,1.2c-0.1-0.6-0.3-1.2-0.4-1.8  c0.2-0.3,0.2-0.7,0.2-1c0,0,0,0,0,0c0,0,0.1-0.1,0.1-0.1c0.3,0.6,0.6,1.3,0.8,1.9c-0.1,0-0.2,0-0.2,0.1c-0.1,0.5-0.4,1.1-0.2,1.7  c0,0.1,0.1,0.1,0.1,0c0.3-0.5,0.3-1.1,0.4-1.6c0,0.1,0.1,0.2,0.1,0.4c-0.1,0-0.1,0-0.2,0.1c-0.1,0.6-0.2,1.1-0.3,1.7  c0,0.1,0.1,0.1,0.2,0c0.2-0.5,0.3-1.1,0.3-1.6c0.1,0.2,0.2,0.5,0.3,0.7c0,0.1,0.2,0.1,0.2,0c-0.1-1.3-0.6-2.5-1.2-3.6  c0.5-0.3,1.1-0.6,1.7-0.9c1.9,4.2,1.3,9.2-0.1,13.5c-0.7,2.1-1.7,3.8-3,5.3c0,0-0.1-0.1-0.2,0c-0.7,0.4-1.1,1.2-1.7,1.7  C34.8,50.7,34.2,51.2,33.6,51.6z M35.4,29c-0.8,0.7-1.6,1.5-2.2,2.3c0.7-1.2,1.6-2.3,2.6-3c-0.2,0.2-0.3,0.3-0.4,0.5  C35.4,28.9,35.4,29,35.4,29z M15.1,46.9c0.7,0.7,1.6,1.3,2.4,1.8c0.4,0.3,0.8,0.5,1.3,0.8c-1.6-0.7-3.1-1.5-4.5-2.9  c-1.3-1.3-2.3-2.9-3-4.7C12.3,43.8,13.5,45.5,15.1,46.9z M13.4,28C13.4,28,13.5,28,13.4,28c-2.9,3.9-3.8,8.5-1.9,13.1  C9.6,36.8,10.2,31.8,13.4,28z M18.1,48.4c-1.6-1.1-3.1-2.5-4.4-4.3c-4.9-6.5-2.7-13.4,2.7-18.6c0.1-0.1,0.1-0.1,0.1-0.2  c5.5-3.6,14.3-2.4,18.5,2.3c0.2,0.2,0.3,0.3,0.4,0.5c-1.9,1.4-3.1,4-4.1,5.9c-1.7,3.4-1.9,8.1,0.1,11.4c0.4,1,0.9,2,1.5,2.9  c-0.1,0.1-0.2,0.2-0.3,0.2C28.4,51.4,22.6,51,18.1,48.4z M34.4,46.1c0,0-0.1,0.1-0.1,0.1c0,0.2,0,0.5,0.1,0.8c0,0,0,0-0.1,0.1  c0-0.1-0.1-0.3-0.1-0.4c-0.1-0.4-0.1-0.7-0.2-1.1C34.2,45.7,34.3,45.9,34.4,46.1z M37.3,31.5c1.7,4.5,0.9,9.9-1.6,13.9  c-0.2,0.2-0.3,0.5-0.5,0.7C32.8,41.4,34.1,35.5,37.3,31.5z M40.5,29.7c5.2-2.1,11.9-0.3,14.8,4.6c2.7,4.6,1.5,10.7-2.1,14.4  c-4.2,4.2-11.4,4.2-15.6,0.4c1-1.1,1.9-2.4,2.6-3.8C42.6,39.9,42.6,34.3,40.5,29.7z M57.3,47.4c-3.8,7.3-11.7,8.5-18.8,5.3  c-1.1-0.5-2.1-1.2-3-2c0.1-0.1,0.2-0.2,0.3-0.3c0.1,0.3,0.2,0.6,0.5,0.7c0.1,0,0.1,0,0.1-0.1c0-0.3-0.2-0.5-0.3-0.8  c0.1,0,0.1-0.1,0.2-0.1c0.1,0.4,0.3,0.9,0.7,0.9c0,0,0.1,0,0.1-0.1c0,0,0-0.1,0-0.1c0.3,0.4,0.7,0.8,1.1,1.1c0.1,0,0.1,0,0.1-0.1  c-0.4-0.3-0.7-0.7-1-1.1c0.1,0.1,0.1,0.1,0.2,0.2c0.1,0,0.1,0,0.2-0.1c0,0,0,0,0,0.1c0.5,0.4,0.9,0.8,1.4,1.2  c0.4,0.3,1,0.8,1.5,0.9c0.1,0,0.1-0.1,0.1-0.1c-0.3-0.4-0.7-0.6-1.1-0.8c-0.6-0.4-1.2-0.8-1.7-1.3c-0.1-0.1-0.2,0-0.2,0  c-0.1-0.5-0.5-0.8-0.7-1.3c0,0,0.1,0,0.1-0.1c0.6,0.5,1.2,1,1.9,1.5c0.1,0.1,0.3-0.1,0.2-0.2c-0.1-0.1-0.2-0.2-0.3-0.3  c0.8,0.5,1.7,0.9,2.6,1.2c-0.1,0-0.1,0.1,0,0.2c0.7,0.6,1.7,1.2,2.7,1c0.1,0,0.1-0.1,0-0.2c-0.8-0.4-1.8-0.4-2.5-1  c0.6,0.2,1.2,0.3,1.9,0.4c0,0,0,0,0,0c0.6,0.4,1.4,0.8,2.1,0.9c0.1,0,0.1-0.1,0-0.2c-0.5-0.3-1-0.5-1.5-0.7c0.7,0,1.4,0,2.1,0  c0,0,0,0.1,0.1,0.1c0.7,0.3,1.5,0.4,2.2,0.2c0.1,0,0.1-0.1,0-0.1c-0.7-0.2-1.4-0.1-2-0.2c1.5-0.2,3-0.7,4.4-1.4  c0.7,0.1,1.4,0,1.9-0.5c0,0,0-0.1,0-0.1c-0.5,0.2-1,0.3-1.5,0.3c0.4-0.2,0.7-0.4,1-0.7c0.8-0.2,1.7-0.5,2.3-1.1c0,0,0-0.1-0.1-0.1  c-0.5,0.2-1,0.4-1.5,0.7c0,0,0,0,0,0c0.4-0.3,0.7-0.7,1.1-1c0.5-0.3,1.1-0.7,1.4-1.2c0-0.1,0-0.1-0.1-0.1c-0.2,0.2-0.5,0.3-0.7,0.5  c2.9-3.9,3.1-9.6,0.7-13.8c-3.4-5.7-13-7.1-17.9-2.7c0,0-0.1,0-0.1,0c-3.1,3.1-4.5,7.8-3.6,12c-0.1-0.3-0.2-0.5-0.3-0.8  c-1.1-4.2,0.6-8.1,3.4-11.2c0.1-0.1-0.1-0.3-0.2-0.2c-4.1,3.7-4.8,9.7-2.7,14.5c-0.1-0.1-0.3,0-0.3,0.1c0,0.4,0.1,0.7,0.1,1.1  c0,0.2,0,0.5,0.2,0.8c-0.1,0.1-0.1,0.1-0.2,0.2c-0.2,0.1-0.4,0.3-0.6,0.5c-0.1,0-0.1,0.1-0.2,0.1c-0.5-0.8-1-1.6-1.4-2.5  c0,0,0-0.1,0-0.1c-0.1-0.2-0.2-0.4-0.3-0.6c0-0.1,0-0.1-0.1-0.2c-1.2-3.6-0.7-7.1,0.7-10.4c0.1,0,0.1,0,0.1-0.1  c0-0.2,0.1-0.4,0.2-0.6c0.2-0.5,0.4-1,0.7-1.5c2-2.1,4.1-4.1,6.9-5.3c1.1-0.4,2.2-0.7,3.4-0.8c0,0,0,0,0,0c0,0,0,0,0,0  c-0.6,0.1-1.2,0.2-1.7,0.4c-0.2,0.1-0.1,0.5,0.1,0.4c2-0.7,3.8-0.1,5.8,0.1c0.1,0,0.1-0.2,0.1-0.2c-0.3-0.2-0.7-0.3-1.2-0.5  c0-0.1,0-0.1,0-0.2c0,0,0.1,0,0.1,0c0.1,0,0.2,0,0.3,0c0,0.1,0.2,0.2,0.4,0.1c0,0,0,0,0.1,0c1.3,0.2,2.5,0.5,3.7,0.9  C59.6,29.9,61.1,40.2,57.3,47.4z"></path>	<path class="st0" d="M39.5,51c-0.2-0.1-0.3,0.1-0.1,0.3c0.8,0.6,1.7,1.5,2.8,1.7c0,0,0.1,0,0-0.1C41.4,52.1,40.3,51.6,39.5,51z"></path>	<path class="st0" d="M46,52.5c-0.3-0.1-0.7-0.2-1-0.3c-0.1,0-0.1,0.1-0.1,0.1c0.6,0.2,1.3,0.7,2,0.5c0.1,0,0-0.1,0-0.1  C46.6,52.6,46.3,52.6,46,52.5z"></path>	<path class="st0" d="M48.3,52c-0.1,0-0.1,0.1,0,0.1c0.5,0.1,1,0.2,1.5,0c0.1,0,0-0.1,0-0.1C49.3,52,48.8,52.1,48.3,52z"></path>	<path class="st0" d="M50.7,51.4c-0.3,0-0.6,0-0.8,0c-0.1,0-0.1,0.2,0,0.2c0.5,0,1.1,0.1,1.6-0.2c0.1,0,0-0.1,0-0.1  C51.2,51.3,50.9,51.3,50.7,51.4z"></path>	<path class="st0" d="M54.8,32.2C54.8,32.2,54.8,32.1,54.8,32.2C54.7,32.1,54.7,32.2,54.8,32.2z"></path>	<polygon class="st0" points="55.5,33.6 55.5,33.6 55.5,33.3 55.5,33.3  "></polygon>	<path class="st0" d="M55.5,32.8c0.7,1.2,1.1,2.5,1.5,3.9c0,0.2,0.3,0.1,0.3,0c-0.2-1.4-0.8-2.7-1.6-3.9  C55.6,32.6,55.4,32.7,55.5,32.8z"></path>	<g>		<path class="st0" d="M15.8,48.8c-0.1-0.1-0.4,0-0.3,0.2c0.9,1.2,2.2,2.5,3.8,2.8c0.1,0,0.2-0.2,0.1-0.3C18,50.8,16.8,50,15.8,48.8   z"></path>		<path class="st0" d="M19.3,50.6c-0.1-0.1-0.3,0.1-0.2,0.2c0.7,0.7,1.5,1.4,2.5,1.7c0.1,0,0.2-0.1,0.1-0.2   C21,51.7,20.1,51.3,19.3,50.6z"></path>		<path class="st0" d="M21.1,50.9C21,50.8,20.9,51,21,51.1c0.8,0.6,1.7,1.5,2.6,1.7c0.1,0,0.2-0.1,0.1-0.2   C23,51.9,22,51.4,21.1,50.9z"></path>		<path class="st0" d="M23.9,51.8c-0.2-0.1-0.2,0.2-0.1,0.3c0.4,0.1,0.8,0.3,1.2,0.4c0.1,0,0.2-0.1,0.1-0.2   C24.7,52.1,24.3,51.9,23.9,51.8z"></path>	</g>	<path class="st0" d="M13.1,26.5c1.4-1.5,3.3-3,5.3-3.4c0,0,0,0,0,0c-2.2,0.4-4.1,1.6-5.5,3.4C12.9,26.5,13.1,26.6,13.1,26.5z"></path>	<path class="st0" d="M30.7,23.2c2,0.7,3.8,1.5,5.4,2.8c0.1,0.1,0.2,0,0.1-0.1c-1.1-1.8-3.5-2.5-5.4-3  C30.6,22.9,30.5,23.1,30.7,23.2z"></path>	<path class="st0" d="M38.3,31.4c0,0.2,0,0.5,0,0.7c0,0,0,0,0,0C38.4,31.9,38.4,31.7,38.3,31.4C38.4,31.4,38.3,31.4,38.3,31.4z"></path>	<path class="st0" d="M38.5,32c-0.1,0.4-0.1,0.7-0.1,1.1c0,0.1,0.1,0.1,0.1,0c0.1-0.4,0.1-0.7,0.2-1.1C38.7,31.9,38.5,31.9,38.5,32z  "></path>	<path class="st0" d="M39.2,34.5c-0.2,0.6-0.4,1.2-0.5,1.8c0,0.1,0.1,0.2,0.2,0.1c0.3-0.5,0.4-1.2,0.6-1.8  C39.5,34.4,39.3,34.3,39.2,34.5z"></path>	<path class="st0" d="M39.2,37.7C39.2,37.7,39.2,37.7,39.2,37.7C39.2,37.6,39.2,37.6,39.2,37.7C39.2,37.7,39.2,37.7,39.2,37.7  C39.2,37.7,39.2,37.7,39.2,37.7z"></path>	<path class="st0" d="M30.7,38.6c0-0.1-0.2-0.1-0.2,0c-0.1,0.6-0.3,1.5,0.1,2.1c0,0,0.1,0,0.1,0c0.1-0.3,0-0.6,0-0.9  C30.7,39.3,30.7,39,30.7,38.6z"></path>	<path class="st0" d="M31,41.5c0,0.1,0.1,0.1,0.1,0c0.2-0.6,0.1-1.3,0-1.9c0-0.1-0.2-0.1-0.2,0C30.9,40.2,30.8,41,31,41.5z"></path>	<path class="st0" d="M31.9,42.4c0-0.4-0.1-0.7-0.2-1.1c-0.1-0.4-0.1-0.9-0.1-1.3c0-0.2-0.2-0.2-0.3,0c-0.1,0.8-0.2,1.8,0.3,2.4  C31.7,42.6,31.9,42.5,31.9,42.4z"></path>	<path class="st0" d="M4.1,38.4c-0.1,1.8,0.2,3.6,1,5.2c0.1,0.1,0.3,0,0.2-0.1c-0.4-1.7-0.9-3.3-1.1-5.1C4.3,38.3,4.1,38.3,4.1,38.4  z"></path>	<path class="st0" d="M3.9,43.4c-0.1-0.2-0.4-0.1-0.3,0.1c0.2,0.6,0.6,1,1.1,1.5C4.9,45.1,5,45,4.9,44.8C4.5,44.4,4.1,44,3.9,43.4z"></path>	<path class="st0" d="M59.2,32.7c0.1,0.1,0.3,0,0.3-0.1c-0.5-1.9-2-3.3-3.3-4.8c-0.1-0.1-0.2,0-0.1,0.1  C57.2,29.5,58.4,30.9,59.2,32.7z"></path>	<path class="st0" d="M59.9,30.1c-0.1-0.2-0.4-0.1-0.3,0.1c0.8,2.2,1.2,4.4,1.4,6.7c0,0.2,0.3,0.2,0.3,0  C61.5,34.6,60.8,32.3,59.9,30.1z"></path>	<path class="st0" d="M11.3,22.1c0.8-0.4,1.5-0.9,2.2-1.5c0.1-0.1,0.1-0.3-0.1-0.3c-0.9,0.3-1.7,0.9-2.4,1.4  C10.9,22,11.1,22.2,11.3,22.1z"></path>	<path class="st0" d="M58.2,49.8c-0.5,1.3-1.4,2.3-2.2,3.4c-0.1,0.2,0.1,0.4,0.2,0.2c1.1-0.9,1.8-2.2,2.3-3.6  C58.5,49.7,58.2,49.7,58.2,49.8z"></path></g></svg>
