<svg xmlns="http://www.w3.org/2000/svg" xmlns:xlink="http://www.w3.org/1999/xlink" id="Layer_1" x="0px" y="0px" viewBox="0 0 65 65" style="enable-background:new 0 0 65 65;" xml:space="preserve"><style type="text/css">	.st0{fill-rule:evenodd;clip-rule:evenodd;fill:#D6A998;}</style><g>	<path class="st0" d="M64.2,37.5c0.2,0,0.4-0.1,0.3-0.3c-0.3-1.7-1.5-3.5-3.3-4.1c0.2-0.2,0.5-0.5,0.6-0.7c0.7-0.9,1.2-1.9,1.1-3.1  c0-0.2-0.2-0.3-0.4-0.3c-0.3,0.1-0.7,0.3-0.9,0.5c0.9-1.7,1.4-3.8,0.8-5.6c0-0.1-0.1-0.2-0.2-0.2c-1,0-1.7,1.9-2,2.6  c-0.1,0.2-0.1,0.4-0.2,0.6c-0.1-0.1-0.2-0.2-0.3-0.2c0.3-0.8,0-1.5-0.5-2c0.1,0,0.1,0,0.2-0.1c0.3-1.3-0.3-2.7-1.6-3.2  c-1.4-0.5-5.8-1-4.4-3.2c0,0,0-0.1,0-0.1c0.7,0.1,1.4,0.3,2.1,0.5c1.3,0.4,1.7,1.2,2,2.4c0,0.2,0.3,0.2,0.4,0  c0.2-0.6,0.1-1.1-0.1-1.5c1,0.5,2.2,0.8,3.2,0.7c0.2,0,0.3-0.2,0.3-0.3c-0.6-1.4-1.8-3.4-3.3-4c1.1-0.5,2.1-1.2,2.8-2.1  c0.1-0.1,0-0.2,0-0.3c-0.9-0.7-1.9-0.4-2.8,0.1c0.1-0.7,0-1.4-0.2-1.9c-0.3-0.9-1-1.4-1.8-1.5c0.7-1.7-0.4-3.8-1-5.6  c-0.1-0.2-0.4-0.2-0.5,0c-0.7,1.9-1.3,4,0,5.7c0,0,0,0,0.1,0.1c-0.1,0-0.2,0.1-0.3,0.1c-0.3,0.1,0,0.5,0.2,0.4  c0.2-0.1,0.3-0.1,0.5-0.2c-0.1,0.2-0.3,0.5-0.4,0.7c0,0,0,0,0,0c0,0-0.1,0-0.1,0c-0.1,0-0.2,0.2-0.2,0.3c-0.1-0.1-0.2-0.1-0.2-0.2  c0.2-0.3,0.1-0.8,0-1.2c-0.1-0.2-0.2-0.4-0.4-0.6c-0.7-1.3-2.9-1.9-4.2-1.3c0.4-1.6,0.4-3.5,0-5c0-0.2-0.3-0.2-0.4-0.1  C47.7,5,47.9,7,48.8,8.7c0,0,0.1,0.1,0.1,0.1c0,0.1,0,0.2,0,0.2c-0.1,0.1-0.1,0.2-0.2,0.4c0,0,0,0,0,0c0-2.2-2.3-3.3-4.2-4.1  c-0.2-0.1-0.3,0.1-0.4,0.3c-0.1,2,2,3.6,4,4.2c0,0.2,0,0.3,0.1,0.5c0,0.2,0.4,0.2,0.4,0c0-0.1,0-0.2,0-0.3c0,0.1,0,0.1,0,0.2  c0,0.3,0.5,0.3,0.5,0c0-0.1,0-0.2,0-0.3c0.1-0.1,0.2-0.2,0.1-0.3c0.3-0.7,1.2-0.8,2-0.7c0.5,0.1,0.9,0.3,1.2,0.6  c-0.3,0-0.6,0.1-0.8,0.2c-0.5,0.2-1,0.7-1.1,1.3c-0.1,0.7,0.6,1.1,1.2,1.3c0,0.2,0,0.5,0,0.7c0.1,0.3,0.6,0.2,0.5-0.1  c-0.1-0.7,0.1-1.3,0.9-1c0.1,0,0.2,0.1,0.3,0.1c0,0,0,0,0,0c-0.3,0.3-1.3,1.2-0.4,1.5c0.1,0,0.3,0,0.4,0c0,0.2,0,0.5,0,0.7  c0.1,0.3,0.6,0.2,0.5-0.1c-0.1-0.2,0-0.5,0-0.8c0.2-0.1,0.4-0.3,0.4-0.4c0.2-0.3,0.1-0.5-0.1-0.7c0,0,0.1,0,0.1,0  c0.9-0.2,1.5,0.1,1.4,1c0,0.4-0.2,0.7-0.4,1c-0.3,0.4-0.7,0.5-1,0.8c-0.1,0.1-0.1,0.2,0.1,0.3c1.2,0.2,1.9-1.4,1.9-2.3  c0-0.9-0.6-1.4-1.4-1.4c0.2-0.2,0.4-0.4,0.5-0.6c0.8,0.1,1.3,0.7,1.6,1.6c0.2,0.6,0.1,1.2,0,1.7c0,0.1-0.1,0.2-0.1,0.2  c-0.6,0.5-1.1,1.2-1.5,1.8c-0.1,0.1-0.3,0.1-0.4,0.2c0,0,0,0,0,0c-0.4-0.3-1-0.5-1.6-0.6c0,0,0,0,0-0.1c0.1-1.5-1-2.2-2.4-2.4  c-2-0.2-4.5,0.8-6-0.9c0,0,0,0,0.1,0c2.3-0.3,4-0.8,6,0.6c0.1,0.1,0.3-0.1,0.2-0.2c-0.6-1.1-1.9-1.3-3.1-1.3c0,0,0-0.1,0-0.1  c-0.7-1.8-1.9-2-3.4-1.7c0,0,0,0,0,0c-0.5-0.6-1.4-0.8-2.2-0.8c-0.5-0.4-1.3-0.5-1.8-0.7c-0.9-0.2-1.7-0.2-2.6,0.1  c-0.2,0-0.2,0.2-0.1,0.3c-0.2,0.1-0.4,0.1-0.7,0.3c0,0,0-0.1,0-0.1c-0.8-0.6-2.1-0.6-3.1-0.3c-2.7,0.1-3.9,3.9-6.7,4.1  c0.1-0.1,0.2-0.2,0.2-0.3c0.5-0.6,1-1.3,1.6-1.9c0.9-0.9,1.9-1.3,3.1-1.7c0.2-0.1,0.1-0.3,0-0.3c-1-0.1-1.8,0.2-2.5,0.7  c0.1-0.1,0-0.2-0.2-0.3c-1.3-0.2-2.7,0.8-3.6,1.6c-0.5,0.4-1,0.9-1.3,1.5c0.1-0.8,0.1-1.5,0.1-2.4c0-0.2-0.2-0.3-0.4-0.2  c-0.9,0.8-2.2,2.4-2.5,4c-0.4-1.3-0.9-2.7-2-3.5c-0.1-0.1-0.4-0.1-0.4,0.1c-0.5,1.8,0.1,3.6,1.3,5c0,0,0,0-0.1,0  c-1-0.3-2-0.1-2.8,0.4c0.9-0.9,1.2-2.3,1.2-3.5c0-0.1-0.1-0.3-0.3-0.3c-1.8,0.1-2.4,2.4-2.1,3.8c0,0.1,0.1,0.2,0.2,0.2  c-0.1,0.2,0.1,0.3,0.3,0.3c0,0,0,0,0,0c-0.2,0.2-0.4,0.4-0.5,0.7c0-1.5-0.5-3.2-0.5-4.7c0-0.2-0.3-0.3-0.4-0.2  c-1.4,1.5-1.3,3.8,0.3,5.1c0,0,0,0,0,0c0,0.1,0,0.3,0.1,0.4c-1-1.3-2.2-2.4-4-2.3c-0.2,0-0.3,0.2-0.3,0.3c0,0.1,0.1,0.1,0.1,0.2  c-0.1,0.1-0.1,0.3,0,0.4c0.1,0.1,0.2,0.2,0.3,0.2c0.2,0.4,0.5,0.8,0.9,1.1C13.4,17,13.2,17,13.1,17c-0.5-0.1-1.1,0.1-1.5,0.5  c0.5-2.4,0.1-4.7-0.9-7c0-0.1-0.1-0.1-0.2-0.1c-0.1,0-0.1,0-0.2,0c-0.1,0-0.2,0.1-0.2,0.2c-0.5,1.9-0.7,3.9,0.1,5.6  c-0.4-0.4-0.8-0.7-1.2-1.1c-0.7-0.6-1.5-1.1-2.4-1.4c-0.2-0.1-0.3,0.1-0.3,0.3c0.2,1.6,2,2.5,3.5,3c0,0,0,0,0,0  c-0.3,0-0.6,0.1-0.8,0.2c-0.8,0.3-1.5,0.8-1.9,1.6c-0.1,0.2-0.2,0.4-0.2,0.6c-0.8-1.3-2.3-1.8-3.5-2.8c-0.2-0.1-0.4-0.1-0.5,0.2  c-0.1,1.9,1.8,3,3.5,3.7c-0.8-0.1-1.5,0.3-2,1.2c-0.4,0.9-0.2,1.7,0.4,2.2c-0.3,0.3-0.5,0.8-0.5,1.4c0,0.9,0.6,1.7,1.3,2.1  c-1.5-0.5-3.5-0.6-4.8-0.1c-0.2,0.1-0.3,0.4-0.1,0.5c1.6,0.9,3.8,1,5.5,0.3c0,0,0.1,0,0.1,0c-1.6,1.5-2.7,3.7-2.6,5.9  c0,0.2,0.3,0.4,0.5,0.2c1.8-1.7,3.1-3.5,3.3-5.8c0.1-0.1,0.1-0.2,0.2-0.3c0.2,0.6,0.7,1.2,1.4,1.5c0.2,0.1,0.5,0.2,0.8,0.2  c-1.4,1-2.4,2.4-2.8,4.2c0,0.1,0,0.3,0.2,0.3c2,0.4,3.4-1.3,4.1-3.1c0,0,0,0,0,0c0,0.2,0,0.5,0.1,0.7c-0.1,0-0.1,0-0.2,0.1  c-0.7,1.5-1,3.1-0.9,4.7c0,0.3,0.5,0.4,0.5,0.1c0.2-0.6,0.4-1.3,0.6-2c0.2,0.5,0.5,0.9,1,1.3c-0.1,0-0.1,0.1-0.1,0.2  c0.2,0.7,0.4,1.4,0.7,2.1c0,0,0,0,0,0.1c-0.6,1.7-0.3,3.5,0.2,5.1c-0.1,0-0.2,0-0.2,0.1c-0.6,1.4-0.5,2.6,0.1,4c0,0-0.1,0-0.1,0.1  c-0.6,1.4-0.6,2.6,0.1,4c-0.5,1.4-0.5,2.7,0.2,4.1c0,0,0,0,0,0c-0.1,1.5-0.6,3.4,0,4.9c-1.9,0.1-3.7,0.3-5.5,0  c-0.3,0-0.4,0.3-0.1,0.4c4.3,1.2,8.8-0.5,13.3,0.6c0.2,0.1,0.4-0.3,0.2-0.4c-1.7-0.7-3.4-0.9-5.2-0.8c0-0.2,0-0.4,0-0.6  c0.4-1,0.4-2.1,0.1-3.1c0.1-0.3,0.1-0.6,0-0.9c0.2-0.7,0.2-1.4,0.1-2.1c0,0,0.1-0.1,0.1-0.1c0-0.5,0-1-0.2-1.5  c0.4-1.1,0.2-2.3,0-3.5c0,0,0-0.1,0-0.1c-0.2-1-0.6-1.8-1-2.7c0.1,0,0.1,0,0.1-0.1c0.6-1.5,0.5-2.8,0-4.1c0.6-1.3,0.4-2.9,0-4.3  c0,0,0-0.1,0-0.1c0.9,0,1.7-0.2,2.5-0.8c0,0.1,0,0.2,0,0.3c-1,1.2-1.6,2.7-1.4,4.3c0,0.2,0.3,0.4,0.5,0.2c0.7-0.7,1.1-1.5,1.3-2.3  c0.3,1.1,0.8,2,1.9,2.7c0.1,0.1,0.3,0,0.4-0.1c0.8-1.1,0.7-2.3,0.2-3.3c0.6,0.3,1.2,0.4,1.8,0.3c0.1,0,0.2-0.2,0.2-0.3  c-0.3-0.9-1.2-1.7-2.2-2c1.4-0.4,2.2-1.7,1.7-3.1c-0.1-0.2-0.4-0.2-0.4,0c-0.1,1.3-0.3,2.5-1.9,2.6c-0.2,0-0.4,0-0.6,0  c0-0.1-0.2-0.1-0.3-0.1c-0.1,0-0.3-0.1-0.4-0.1c0,0,0,0,0,0c0.1-0.2-0.1-0.3-0.3-0.2c0,0,0,0-0.1,0c-0.3-0.2-0.6-0.4-0.9-0.7  c0.8-0.2,1.3-1,1.4-1.7c1-0.3,1.7-1,1.4-2.1c0-0.2-0.1-0.3-0.2-0.5c0-0.3-0.1-0.5-0.2-0.7c0.2-0.2,0.3-0.4,0.4-0.6  c0.6,0.3,1,0.8,1.4,1.4c0.2,0.3,0.4,0.7,0.4,1c0,0.2-0.1,0.4-0.3,0.5c-0.1-0.3-0.2-0.5-0.3-0.8c-0.1-0.2-0.5-0.1-0.4,0.2  c0.1,0.3,0.2,0.6,0.2,0.9c0,0-0.1,0-0.1,0.1c-0.1,0.1,0,0.2,0.1,0.2c0,0,0,0,0.1,0c0,0.3,0,0.6-0.1,0.9c0,0.1,0.1,0.2,0.2,0.1  c0.4-0.3,0.5-0.7,0.5-1.1c0.9-0.1,1.3-1,1.2-1.9c-0.2-1-1-2-2-2.4c-0.2-0.1-0.4,0.2-0.2,0.3c0.7,0.4,1.3,1,1.6,1.7  c0.1,0.3,0.2,0.6,0.1,0.9c0-0.1,0-0.3-0.1-0.4c-0.3-0.9-1.1-1.7-2-2.1c0-0.2,0-0.4,0-0.7c-0.1-0.7-0.6-1.5-1.2-2.1  c0.1,0.1,0.2,0.1,0.3,0.2c0.7,0.3,1.5,0.1,2-0.3c0.2-0.1,0.3-0.3,0.4-0.5c0.1,2,0.6,4.4,2.4,5.2c0.2,0.1,0.4,0,0.4-0.2  c0.2-2.1,0.3-4.6-1.3-6.2c0.3,0.1,0.7,0,1.1-0.1c0.6-0.2,1.2-0.6,1.4-1.2c0.3-0.6,0.2-1.4-0.3-1.8c0.5-0.4,0.7-1,0.8-1.6  c0.3,0.2,0.5,0.5,0.5,0.8c0,0.5-0.6,0.8-0.9,1c-0.1,0.1,0,0.3,0.2,0.3c0.7-0.1,1.2-0.6,1.3-1.3c0-0.6-0.5-1-1-1.2  c0-0.2,0-0.4-0.1-0.6c-0.3-1.1-1.1-1.9-2.1-2.3c1.2-0.5,2.2-1.2,3.2-2c0.2-0.1,0-0.4-0.2-0.4c-0.2,0-0.4,0-0.6,0.1  c0.3-0.2,0.5-0.5,0.7-0.7c0,0,0,0,0,0c0.2,0,0.3,0,0.5,0c0,0,0,0.1,0,0.1c2,7.2,5.3,14.3,10.2,20.2c3.5,4.3,9.4,8.8,15.5,9  c0.2,0.9,1,1.7,1.9,2c-3.4,4.3-7,9-8.2,14.3c-0.1,0.2,0.3,0.3,0.4,0.1c1.9-5,4.6-9.1,7.6-13.3C54,48.4,53,51.3,52.4,54  c-0.1,0.3,0.3,0.4,0.4,0.1c0.9-3.3,3-6.7,3.5-10.2c0.1-0.1,0.1-0.1,0.2-0.2c0,0,0-0.1,0-0.1c0.2,0,0.3-0.1,0.4-0.2  c-0.3,0.7-0.4,1.4,0,2.1c0.1,0.2,0.3,0.4,0.4,0.6c0.5,1.4-0.4,2.7,0.2,4c-0.9,1.4-2.1,3.1-0.8,4.6c-0.3,0.5-0.4,1,0.3,1.3  c0.1,0,0.1,0,0.2,0.1c-0.4,1.2-0.9,3.5,0.2,4.5c-3.6-0.4-7.2-1.2-10.8-1c-5.1,0.3-10.1,2.7-15.1,0.7c-0.3-0.1-0.5,0.3-0.2,0.4  c4.1,1.8,8.8,0.6,12.9-0.2c6.1-1.1,11.9,1.7,17.9,0.7c0.3,0,0.2-0.4-0.1-0.4c-1.3,0.1-2.6,0-3.9-0.1c-0.4-0.7-0.7-1.2-0.8-2.1  c0-0.8,0.1-1.6,0.3-2.3c0.4,0.1,0.8,0.2,1.2,0.8c0.8,1.1,0.1,2.2-0.4,3.3c-0.1,0.2,0.2,0.3,0.3,0.2c1-1.1,1.3-2.4,0.5-3.7  c-0.3-0.4-0.6-0.8-1.1-0.9c-0.7-0.2-1.3-0.2-1.1-0.8c0.4,0.2,0.9,0.1,1.3,0.1c0.4,0,0.8,0,1.2,0c0.7,0.1,0.6,0.8,0.6,1.3  c0-0.2-0.1-0.3-0.2-0.5c-0.1-0.2-0.5-0.1-0.4,0.1c0.2,0.6,0.3,1.3,0.3,1.9c0,0.7-0.4,1.3-0.6,1.9c0,0.2,0.2,0.3,0.3,0.2  c0.8-0.8,0.9-2,0.7-3.1c0.1,0,0.1,0,0.2-0.1c0.5-1,0.4-2.3-1-2.3c-0.7,0-1.5,0.1-2.1-0.1c0-0.2-0.2-0.3-0.3-0.2  c-1.1-0.8,0.1-2.7,0.8-3.8c0.1,0.1,0.2,0.1,0.3,0.2c1.4,0.8,1,2,0.6,3.2c-0.1,0.2,0.2,0.3,0.3,0.1c0.5-0.8,0.9-2.3,0.3-3.1  c0,0,0,0,0,0c0.4-0.4,0.4-0.9,0.4-1.5c0.1-0.4,0.1-0.8,0-1.1c1-1.1,1.5-2.7,0.4-3.9c-0.1-0.2-0.5-0.4-0.7-0.5  c-1.4-0.8-1.2-1.8-1-3.1c0.1-0.7,0.1-1.2-0.1-1.8c1.2,1.1,1.1,2.4,1.5,4c0.1,0.2,0.3,0.1,0.3,0c0-1.2,0-1.9-0.3-2.6  c0,0.1,0.1,0.1,0.1,0.2c0.4,2.1,1.3,4.3,3.1,5.5c0.1,0.1,0.3,0,0.4-0.1c1.3-2.1-0.7-4.8-2.7-6c0.2-0.2,0.5-0.4,0.6-0.5  c0.4-0.3,0.8-0.7,1.2-1c0.2-0.2,0-0.5-0.2-0.5c-0.6,0-1.3,0.1-1.8,0.3c0.3-1,0.4-2,0.1-3C61.7,36.4,62.8,37.3,64.2,37.5z M47.4,8.1  c-0.1-0.1-0.1-0.2-0.2-0.2c-0.2-0.2-0.5,0-0.4,0.2c0.2,0.3,0.4,0.6,0.6,0.8C46,8.3,44.8,7.3,44.6,6c0.9,0.3,1.7,0.7,2.4,1.3  c0.3,0.3,0.5,0.5,0.6,0.8C47.6,8,47.5,8,47.4,8.1z M48.9,7.9c-0.5-1.2-0.5-2.5,0.1-3.6C49.2,5.5,49.1,6.7,48.9,7.9z M53.1,11.2  c-0.4-0.1-0.8,0-1.1,0.3c-0.1,0.1-0.2,0.2-0.2,0.3C51.4,11.6,51,11.4,51,11c0.1-0.4,0.4-0.7,0.8-0.9c0.3-0.2,0.8-0.3,1.1-0.1  c0.2,0.2,0.4,0.5,0.6,0.8c0,0.2,0,0.4,0.1,0.5C53.4,11.3,53.2,11.2,53.1,11.2z M55.1,10.3c-0.1,0-0.2,0-0.3,0.1c0-0.1,0-0.1,0-0.2  c-0.9-1.3-0.9-3.3-0.3-4.7c0.2,0.7,0.5,1.4,0.7,2.1C55.6,8.6,55.5,9.5,55.1,10.3z M16.1,12.5c0,0.7,0.1,1.4,0.2,2.1  c0.1,0.4,0.1,0.9,0.1,1.3C15.6,14.9,15.5,13.6,16.1,12.5z M6.8,14.4c1,0.5,1.8,1.3,2.6,2C8.4,16,7.3,15.4,6.8,14.4z M3.4,17.4  c0.6,0.4,1.2,0.8,1.8,1.2c-0.1,0.1-0.1,0.1-0.1,0.2c0.1,0.3,0.2,0.6,0.4,0.9C4.6,19.1,3.6,18.4,3.4,17.4z M1.5,27.7  c0.9-0.2,1.7-0.1,2.6,0c0.3,0.1,0.6,0.1,0.9,0.2C3.9,28.2,2.6,28.1,1.5,27.7z M16.8,40.2c0-0.3,0.1-0.5,0.1-0.8  c0.1,0,0.1,0,0.2-0.1c0.2-0.3,0.3-0.5,0.5-0.8C17.4,39.1,17.2,39.7,16.8,40.2z M21.8,37.8c-0.6,0-1.2-0.2-1.7-0.6  c-0.3-0.2-0.5-0.4-0.6-0.7C20.5,36.5,21.4,37,21.8,37.8z M18.4,36.6C18.4,36.6,18.4,36.6,18.4,36.6c1.3,1,2.5,2.7,1.5,4.2  c-1.3-0.9-1.6-2.4-1.7-3.9C18.3,36.9,18.3,36.7,18.4,36.6z M20.1,10.5c0.5,0.5,0.9,1.2,1.1,1.9c-0.2-0.1-0.4,0-0.4,0.2  c0,0,0,0,0,0.1c0,0,0,0,0,0c0,0,0,0,0,0c0.1,0.5,0.2,1,0.5,1.4c0.1,0.3,0.3,0.6,0.4,0.9C20.7,13.8,19.8,12.1,20.1,10.5z M17.6,15.1  c-0.2-1,0.1-2.8,1.3-3.1c0,0.6-0.2,1.3-0.4,1.9C18.2,14.4,17.9,14.7,17.6,15.1z M21,15.4c0.8,0.3,1.4,0.9,1.8,1.6  c0.4,0.7,0.4,1.2,0.1,1.7c-0.4-0.1-0.9-0.2-1.3-0.1c-0.1,0-0.1,0-0.2,0c0-0.6-0.2-1.3-0.7-1.7c-0.4-0.3-0.8-0.3-1.2,0  c-0.4,0.2-0.6,0.7-0.5,1.1c0.1,0.6,0.8,1,1.3,1.2c0,0,0,0,0.1,0c-0.1,0.1-0.1,0.1-0.1,0.2c0,0,0-0.1-0.1-0.1  c-0.7-0.4-1.6-0.7-2.4-0.6C16.5,16.6,18.9,14.5,21,15.4z M22,20c-0.3,0.1-0.5,0.3-0.7,0.6c0,0-0.1,0-0.1,0  c-0.1-0.1-0.2-0.2-0.3-0.4c-0.1-0.2-0.2-0.2-0.4-0.2c0-0.4,0.1-0.7,0.6-0.9c0.4-0.2,0.9-0.2,1.4-0.1c-0.1,0.1-0.2,0.2-0.2,0.3  c-0.1,0.1,0,0.4,0.2,0.3c0.3-0.1,0.5-0.2,0.6-0.4c0.1,0.1,0.2,0.1,0.3,0.2c0.3,0.3,0.4,0.7,0.4,1.2c-0.1,0.4-0.4,0.6-0.8,0.7  c0,0,0,0,0,0C23,20.8,22.9,19.8,22,20z M20.5,18.9c0-0.1,0-0.2-0.1-0.3c-0.4-0.2-0.8-0.4-1-0.8c-0.1-0.2,0.1-0.5,0.3-0.6  c0.2-0.2,0.5-0.2,0.7,0c0.4,0.3,0.5,1,0.5,1.5c0,0,0,0,0,0C20.8,18.8,20.6,18.9,20.5,18.9z M16.9,18.8c-0.6,0.3-1.1,0.7-1.3,1.3  c0-0.6-0.2-1.2-0.6-1.8c-0.1-0.1-0.2-0.2-0.3-0.3C15.4,18.3,16.1,18.6,16.9,18.8z M9.1,22.6c0.2,1.4,1.9,2.7,3.2,1.4  c1.2-1.2-0.8-2.6-2-2.5c-0.1,0-0.3,0.1-0.3,0.3c0,0.3,0,0.6,0.3,0.8c0.2,0.1,0.4-0.2,0.3-0.3c0,0,0-0.1-0.1-0.2  c0.6,0.1,1.2,0.4,1.5,0.9c0.4,0.6-0.5,1-1,1c-0.5,0-0.9-0.4-1.1-0.8c-0.4-0.7-0.3-1.6,0.3-2.2c0.2-0.2,0.4-0.4,0.7-0.4  c0.1,0,0.1,0,0.2,0c0,0.1,0.1,0.1,0.2,0c0.5,0.1,1,0.3,1.4,0.6c0.4,0.2,0.7,0.5,1,0.9c0,0,0,0.1,0,0.1c-0.1,0.1,0,0.2,0.1,0.3  c0.1,0.6-0.1,1.2-0.6,1.6c-0.7,0.6-1.8,0.6-2.7,0.4c-0.8-0.2-1.7-0.6-2.2-1.2c-0.7-0.9,0-1.7,0.7-2.3c0.3-0.2,0.6-0.3,1-0.4  C9.3,21,9,21.7,9.1,22.6z M13.6,24.2c0.7-0.5,0.8-1.3,0.5-2c0.5-0.3,0.9-0.7,1.1-1.1c0,0.2,0,0.3,0.1,0.5c0,0-0.1,0-0.1,0  c-0.3,0.1-0.2,0.4-0.2,0.7c0,0.1,0.1,0.1,0.2,0.1c0.1,0,0.2-0.1,0.3-0.2c0,0,0,0,0,0c0,0,0,0,0,0c0.1,0.1,0.1,0.3,0.1,0.4  c0.2,0.7,0.1,1.4-0.1,2.1c-0.1,0.2-0.1,0.4-0.2,0.7c-0.5,0.3-1,0.7-1.4,1.2c-0.4-0.1-0.8-0.5-1.1-0.8c0,0-0.1,0-0.1-0.1  c0,0,0-0.1,0-0.1C13.2,25.2,13.5,24.7,13.6,24.2z M13,15.5c0-0.1-0.1-0.1-0.1-0.2c1.2,0.1,2.1,0.8,2.8,1.6  C14.9,16.5,13.9,16.1,13,15.5z M11.4,18.2C11.4,18.2,11.4,18.2,11.4,18.2c0.6-0.3,0.9-0.8,1.5-0.8c0.7,0,1.2,0.6,1.6,1  c0.9,1.2,0.6,2.6-0.5,3.3c-0.3-1-1.2-1.8-2.3-1.9c-0.1,0-0.2,0-0.3,0C11.5,19.4,11.5,18.8,11.4,18.2z M10.4,11.1  c0.1-0.4,0,0.1,0.1,0.5c0.2,0.6,0.4,1.2,0.5,1.9c0.3,1.2,0.2,2.3,0,3.5C9.9,15.2,9.9,13.2,10.4,11.1z M7,20.4C7,20.4,7,20.4,7,20.4  c0.1,0.2,0.3,0.3,0.5,0.4c0.2,0.1,0.3-0.1,0.2-0.2C7.4,20,7.2,19.6,7.5,19c0.3-0.6,0.8-1,1.4-1.2c0.5-0.2,1.2-0.3,1.7,0.1  c0.6,0.5,0.5,1.4,0.4,2.2c-0.1,0-0.2,0-0.2,0c-0.3,0-0.7,0-1,0c-0.7,0.1-1.6,0.6-2.1,1.2c-0.3-0.2-0.6-0.4-0.9-0.5  C6.9,20.6,7,20.5,7,20.4z M4.2,33.3c0.1-1.6,0.8-3.2,2-4.4c-0.5,1-1.1,1.9-1.5,2.9C4.5,32.1,5,32.3,5.2,32c0.5-0.9,1-1.8,1.6-2.6  C6.3,30.9,5.4,32.1,4.2,33.3z M7.6,33.7c0.3-1.1,0.9-2.1,1.7-2.9c-0.1,0.2,0.2,0.5,0.5,0.3c0.5-0.3,0.9-0.7,1.3-1.1  C10.6,31.7,9.4,33.9,7.6,33.7z M11.4,29c0-0.1,0.1-0.1,0.1-0.2c0-0.1-0.1-0.2-0.2-0.2c-0.3,0.2-0.6,0.5-1,0.6  c-0.4,0.1-0.8,0-1.2-0.2c-0.7-0.3-1.2-1.1-1.2-1.9c0-0.3-0.4-0.3-0.5,0c0,0.1,0,0.3,0,0.4c0,0,0,0,0,0c0,0,0-0.1,0-0.1  c0-0.1,0-0.1,0-0.2c0-0.2-0.2-0.2-0.3-0.2c-1.2,0-2-0.2-2.4-1.4c-0.2-0.6,0-1.3,0.4-1.5c0.3,0.1,0.6,0.2,0.9,0.2  c0,0.4,0.2,0.7,0.7,0.9c0.1,0,0.3-0.1,0.2-0.2c-0.1-0.2-0.3-0.4-0.4-0.6c-0.1-0.3-0.1-0.5,0.1-0.8c0.1-0.3-0.3-0.5-0.4-0.2  c-0.1,0.1-0.1,0.2-0.1,0.3c-0.3-0.2-0.6-0.2-0.9-0.2c-1.4-1,0.3-3.9,2.3-2.1c-0.1,0.2-0.1,0.3-0.1,0.5c-0.1,1,0.6,1.7,1.5,2.2  c1.1,0.7,2.8,0.9,4,0.4c-0.4,0.5-0.8,0.9-1.5,1.1C10,26.1,9,25.2,8.4,24.3c-0.1-0.2-0.5,0-0.4,0.2c0.6,1.1,1.6,1.9,3,1.8  c0.5,0,0.9-0.2,1.3-0.5c0,1.1-0.9,1.6-2.1,1.6c-0.5,0-1-0.2-1.5-0.4c-0.4-0.3-0.4-0.5-0.4-1c0-0.2-0.2-0.3-0.3-0.1  c-0.4,0.4-0.1,1,0.2,1.3c0.5,0.5,1.2,0.6,1.9,0.7c1.4,0.2,2.4-0.5,2.6-1.6c0.3,0.3,0.6,0.5,0.9,0.7c-0.3,0.5-0.4,1.2-0.4,1.8  c-0.6,0.1-1.1,0.4-1.5,0.9c0-0.1,0-0.1,0-0.2c0-0.2-0.1-0.3-0.2-0.3C11.6,29,11.5,29,11.4,29z M15.4,29.2c0.5-0.3,1.2-0.5,1.7-0.5  c0.8-0.1,1.4,0.2,1.9,0.7c-0.1,0.1-0.2,0.1-0.4,0.2c-0.6-0.2-1.3-0.2-1.9-0.1c-0.3,0-0.6,0.2-0.9,0.3  C15.8,29.6,15.6,29.4,15.4,29.2z M15.8,31.1c-0.2,0.1-0.3,0.3-0.4,0.6c0,0.1,0,0.2,0,0.3c-0.1-0.1-0.3-0.2-0.4-0.3  c0-0.1,0-0.1,0-0.2c0.1-0.4,0.3-0.7,0.5-0.9C15.7,30.7,15.7,30.8,15.8,31.1C15.8,31,15.8,31.1,15.8,31.1z M15.5,30  c-0.4,0.3-0.6,0.7-0.8,1.1c-0.1-0.1-0.1-0.3-0.1-0.5c0-0.5,0.1-0.9,0.5-1.2C15.2,29.7,15.4,29.8,15.5,30z M14.2,30.1  c-0.2-0.3-0.4-0.6-0.4-1c0.3,0,0.6,0.1,0.9,0.2C14.5,29.6,14.3,29.9,14.2,30.1z M14,30.6c0,0,0.1,0.1,0.1,0.1c0,0.3,0,0.5,0.1,0.8  c0.1,0.1,0.1,0.3,0.2,0.4c-0.1,0.7,0,1.4,0.3,1.9c-0.7,0.3-1.2,0.4-1.9-0.2c-0.4-0.4-0.7-0.8-0.9-1.3c0.1-0.2,0.3-0.4,0.4-0.6  c0.2-0.2-0.1-0.5-0.3-0.3c-0.1,0.1-0.2,0.2-0.3,0.3c0-0.1,0-0.1-0.1-0.2c-0.3-1.2,0.5-2.1,1.5-2.3C13.4,29.7,13.7,30.2,14,30.6z   M12.8,36.3c0.6,0.4,1.4,0.7,2.1,0.8c-0.1,0-0.1,0.1-0.1,0.2c0.1,0.7,0.2,1.5,0.2,2.3c0,0.4-0.1,0.8-0.1,1.2  C14.3,39.3,13.3,37.9,12.8,36.3z M13.3,38.8c0.2,0.5,0.5,0.9,0.7,1.4c1,1.8,1.1,3.2,0.8,5.1C13.9,43.3,12.8,41.4,13.3,38.8z   M13.7,60.5c0-0.8-0.1-1.5-0.1-2.3c0-0.6,0.1-1.2,0.1-1.8c0.3,0.4,0.5,0.8,0.8,1.2c0.5,0.9,0.7,1.8,0.9,2.7  C14.9,60.5,14.3,60.5,13.7,60.5z M15.5,58.5c-0.2-0.5-0.5-1-0.8-1.4c-1.1-1.7-1.8-3.1-1.4-5c0.4,0.6,0.8,1.2,1.2,1.8  c0.2,0.4,0.4,0.7,0.6,1.1c-0.1,0-0.2,0.2-0.1,0.3C15.5,56.4,15.6,57.4,15.5,58.5z M15.6,54.6c-0.2-0.4-0.5-0.9-0.8-1.3  c-1.2-1.8-2.2-3.2-1.5-5.3c0.7,1.4,1.4,2.6,2,4c0,0,0,0,0,0C15.6,52.9,15.7,53.8,15.6,54.6z M15.5,48.1c0.1,0.6,0.2,1.2,0.2,1.8  c0,0.4,0,0.8,0,1.2c-1-2.4-3.3-4.4-2.4-7.3C13.9,45.3,14.7,46.7,15.5,48.1z M17.8,35.6c-1.3,1-2.8,1.4-4.4,0.5  c-1.3-0.7-1.8-2-1.5-3.2c0.3,0.5,0.6,0.9,1,1.2c0.7,0.5,1.7,0.6,2.3,0c0.4,0.4,0.9,0.6,1.6,0.5C17,35,17.4,35.4,17.8,35.6z   M16.9,34.1C16.9,34.1,16.9,34,16.9,34.1c-0.2-0.3-0.5-0.2-0.4,0c-0.2,0-0.4,0-0.6-0.1c-0.2-0.1-0.4-0.2-0.6-0.3c0,0,0-0.1-0.1-0.1  c-0.3-0.4-0.3-0.9-0.3-1.4c0.2,0.1,0.4,0.2,0.7,0.3c0.1,0.2,0.3,0.4,0.5,0.6c0.6,0.4,1.2,0.2,1.7-0.2c0,0,0,0,0,0  c0.1,0,0.1,0,0.2,0C17.9,33.5,17.5,34,16.9,34.1z M16.5,31.3c0.7-0.2,1.2,0.1,1.4,0.6c-0.1,0.2-0.3,0.4-0.5,0.6  c-0.5,0-1-0.1-1.4-0.2C15.9,31.9,16,31.5,16.5,31.3z M17.2,30.8c-0.3,0-0.6,0-0.9,0c0,0,0,0,0,0c-0.3-0.8,0.2-1,0.9-0.7  c0.5,0.2,0.8,0.6,0.9,1C17.8,31,17.5,30.9,17.2,30.8z M18.7,32.3c0-0.2-0.1-0.4-0.2-0.6c0.1-0.5,0.1-1-0.2-1.4  c-0.2-0.2-0.4-0.4-0.7-0.5c0.5,0,1,0.2,1.4,0.4c0.2,0.1,0.4,0.3,0.5,0.5c0,0.1,0,0.1,0,0.2c0,0,0,0.1,0.1,0.1  C19.7,31.6,19.3,32.1,18.7,32.3z M19.5,27.6c0.3,0.7,0.2,1.2-0.2,1.6c-0.9-1-2.8-1-4.1-0.2c0,0-0.1,0-0.1,0.1  c-0.4-0.3-0.9-0.4-1.4-0.4c0-0.6,0.2-1.2,0.5-1.7c0.1,0,0.2,0,0.4-0.1c0.5-0.2,0.9-0.7,1.1-1.2c0.5-0.2,1.1-0.3,1.7-0.1  C18.4,25.8,19.1,26.7,19.5,27.6z M16.3,24.7c0.1-0.1,0.2-0.1,0.3-0.2c0.2-0.1,0.4-0.3,0.6-0.4c0.2-0.1,0.3-0.3,0.5-0.4  c0,0.6,0.2,1.3,0.6,1.7c-0.2-0.1-0.3-0.2-0.5-0.2c-0.6-0.2-1.2-0.2-1.8-0.1c0,0,0-0.1,0-0.1c0-0.1,0-0.2,0.1-0.3  C16.1,24.7,16.2,24.7,16.3,24.7z M16.2,22.6c0.2,0.1,0.5,0.2,0.8,0.2c-0.3,0.2-0.5,0.4-0.7,0.7C16.2,23.2,16.2,22.9,16.2,22.6z   M21.9,22.9c-0.2,0.4-0.2,0.9-0.3,1.3c-0.1,0.4-0.3,0.7-0.5,1c-0.4,0.4-1,0.5-1.6,0.3c-1.3-0.4-1.7-1.8-1.2-2.9  c0.2,0,0.4-0.1,0.6-0.2c0.4,0.4,0.8,0.7,1.3,0.7c0.1,0,0.2-0.1,0.1-0.2c-0.2-0.3-0.6-0.6-1-0.8c0-0.1,0-0.2-0.2-0.2  c0,0-0.1,0-0.1,0c-0.4-0.5-0.6-1.1-0.4-1.7c0.1-0.2-0.2-0.2-0.3-0.1c-0.3,0.6-0.2,1.2,0.1,1.8c-0.1-0.1-0.3-0.1-0.3,0  c0,0,0,0.1-0.1,0.1c-0.2,0-0.4,0.1-0.5,0.1c-0.4,0-0.8,0-1.2-0.2c-0.6-0.3-0.7-0.9-0.5-1.5c0.2-0.7,0.7-1.2,1.3-1.5  c0.1-0.1,0.3-0.1,0.5-0.1c0.1,0,0.1,0,0.2,0c0.7-0.1,1.5,0.2,2.1,0.5c0.1,0,0.1,0,0.1,0c-0.2,0.6,0.2,1.3,0.6,1.8  c0.1,0.1,0.3,0.1,0.4,0.1c0,0.3,0.4,0.5,0.8,0.5C21.8,22.3,21.8,22.6,21.9,22.9C21.9,22.9,21.9,22.9,21.9,22.9z M21.7,20.9  c0.1-0.2,0.3-0.3,0.4-0.4c0,0,0.1,0,0.1,0c0.1,0.4,0,0.7,0.3,1c-0.2,0-0.3,0-0.4,0C21.5,21.4,21.4,21.4,21.7,20.9z M24.1,29.9  c-1.6-1.1-1.9-3.8-1.9-5.7c0.1-0.2,0.1-0.5,0.1-0.7c0.1,0.1,0.2,0.1,0.2,0.2c0,0-0.1,0.1,0,0.2c0.2,0.4,0.3,0.9,0.4,1.3  c0.1,0.5,0.1,1,0.4,1.4c0.1,0.1,0.2,0.1,0.3,0c0.1-0.5,0-1.1-0.2-1.7C24.3,26.3,24.2,28.2,24.1,29.9z M25.5,18.1  c0.3,0.5,0.4,1.1,0.2,1.7c-0.2,0.7-0.8,1-1.4,1.4c-0.1,0.1-0.1,0.3,0.1,0.3c0.3,0,0.5-0.1,0.7-0.2c0.1,0.5,0.4,0.9,0.2,1.5  c-0.2,0.4-0.6,0.7-1.1,0.9c-1.2,0.4-2-0.5-2-1.5c0.3,0,0.5,0,0.6,0c1-0.1,1.6-0.7,1.6-1.6c0-0.7-0.4-1.2-1-1.5  c0.2-0.5,0.2-1,0.1-1.5c-0.1-0.3-0.3-0.6-0.5-0.9c0,0,0.1,0,0.1,0c0.1,0,0.2-0.1,0.2-0.1C24.4,16.6,25.1,17.2,25.5,18.1z   M23.1,15.2c-0.2,0.2,0,0.4,0.2,0.5c0,0,0,0.1-0.1,0.1c0,0,0,0.1,0,0.1c-0.2,0-0.4,0-0.6,0c0,0,0,0-0.1,0c-0.1-0.1-0.1-0.1-0.2-0.2  c0-0.1,0.1-0.1,0-0.2c0,0,0.1,0,0.1-0.1c0,0.1,0.1,0.1,0.1,0.2c0.2,0.2,0.6-0.1,0.4-0.3c-1.1-1.3,0.4-3.9,1.6-5.1  C24.5,12,24.4,13.6,23.1,15.2z M25.1,15c0,0-0.1,0-0.2,0c-0.1,0-0.2,0-0.3,0c0.5-0.3,1-0.5,1.6-0.7C25.9,14.6,25.5,14.8,25.1,15z   M24.3,14.4c0-0.1,0.1-0.1,0.1-0.2c0.1,0,0.1-0.1,0.2-0.2c0.3-1.2,1-2.1,1.9-3c1-1,2.2-1.3,3.5-1.8C28,10.7,26.6,13.6,24.3,14.4z   M62.4,29.8c-0.1,0.8-0.4,1.5-0.9,2.1c-0.2,0.3-0.4,0.5-0.7,0.7c0.3-0.4,0.6-0.8,0.6-1.2c0-0.2-0.2-0.3-0.4-0.2  c-0.1,0.1-0.1,0.1-0.2,0.2C61.3,30.7,61.8,30.1,62.4,29.8z M62.1,24.5c0.2-0.2,0.2,0.6,0.2,0.8c0.1,0.7-0.1,1.3-0.2,2  c-0.1,0.6-0.4,1.1-0.6,1.7c0.1-0.6,0-1.3-0.1-1.8c-0.1-0.3-0.5-0.2-0.5,0.1c0.1,0.4,0.1,0.9,0.1,1.3c0,0.4-0.2,0.8-0.2,1.2  c0-0.1-0.1-0.2-0.1-0.3c0.4-0.7,0.3-1.3-0.1-1.9C60.7,26.4,61.4,25.3,62.1,24.5z M60.3,31.2c-0.3,0.5-0.5,1.1-0.6,1.6  c-0.5-0.6-1.1-1.1-1.5-1.7c0-0.1-0.1-0.1-0.1-0.2c0,0,0,0,0,0c-0.4-0.7-0.6-1.4-0.2-2.3c0.1,0.1,0.2,0.1,0.3,0.2  c0.6,0.4,1.2,0.8,1.7,1.3C60.3,30.5,60.4,30.8,60.3,31.2z M60,27.7c-0.1,0.7,0,1.3,0.2,1.9c-1.1-1.1-3-1.6-2.8-3.3  c0.1,0.1,0.2,0.1,0.3,0.2c0.6,0.3,1.2,0.5,1.8,0.8C59.7,27.5,59.9,27.6,60,27.7z M59.4,26.6c-0.6-0.3-1.3-0.5-1.9-0.9  c0-0.1-0.1-0.1-0.2-0.1c-0.6-0.4-1-0.9-1-1.6c0.6,0.2,1.3,0.5,1.9,0.8C59.1,25.2,59.2,25.8,59.4,26.6z M54.6,21.2  c0.9,0.3,1.9,0.5,2.8,0.8c1.4,0.5,1.4,1.6,1.7,2.7c-0.3-0.3-0.7-0.5-1.1-0.7C56.5,23.4,54.5,23.1,54.6,21.2  C54.5,21.2,54.6,21.2,54.6,21.2z M57.6,14.5c0.5-0.4,1-0.6,1.6-0.8c0.5-0.1,1,0,0.5,0.5c-0.4,0.4-0.8,0.7-1.3,0.9  c-0.1,0.1-0.3,0.1-0.4,0.2c0.3-0.2,0.6-0.5,0.9-0.8c0.2-0.2-0.1-0.6-0.3-0.4c-0.4,0.3-0.7,0.6-1.1,0.8c-0.1,0-0.1,0.1-0.1,0.2  c-0.1,0.1-0.2,0.1-0.3,0.2C57.3,15.2,57.5,14.9,57.6,14.5z M55.7,16.9c0.5-0.2,1-0.4,1.5-0.6c1.5,0.3,2.7,2.1,3.3,3.5  c-1.7-0.1-3.4-1-4.5-2.3c0,0,0,0,0,0c0,0,0-0.1-0.1-0.1c0.2,0.3,0.5,0.5,0.8,0.7c0.3,0.2,0.8,0.4,1.2,0.2c0.1,0,0.1-0.2,0-0.2  c-0.2-0.2-0.6-0.3-0.9-0.4c-0.3-0.2-0.6-0.4-0.8-0.7c-0.1-0.1-0.3-0.1-0.4,0.1C55.7,17,55.7,17,55.7,16.9  C55.7,16.9,55.7,16.9,55.7,16.9z M55.2,17.3C55.3,17.4,55.3,17.4,55.2,17.3c0.2,0.4,0.4,0.8,0.7,1.1c-2.2-0.7-5.3-0.7-5.3-2.3  C52.3,16.2,54,16.2,55.2,17.3z M47.9,14c2.3,0,4.5-0.8,5.5,1.8c0,0,0,0,0,0c-0.8-0.1-1.8-0.1-2.7-0.1c-0.1-0.1-0.3-0.2-0.4,0  c-0.1,0-0.2,0-0.3,0c0,0,0,0,0,0c0-0.2-0.3-0.2-0.4-0.1c-1-0.2-1.8-0.6-2.1-1.6C47.6,13.9,47.7,14,47.9,14z M44.9,10.2  c1.5-0.4,2.2,0.3,3.1,1.3c-2.2,0.1-4.3,1-6.4,0c0.2-0.1,0.5-0.2,0.7-0.2C43.1,10.9,44,10.5,44.9,10.2z M42.9,9.4  c0.2,0,0.4,0,0.5,0.1c0.4,0.1,0.7,0.2,1,0.4c-1.9,0.6-4,1.8-5.5,1c1.2-0.6,2.1-1.3,3.8-1.3C42.8,9.6,42.9,9.5,42.9,9.4z M39.3,8.9  c0.1,0,0.2-0.2,0.1-0.3c0.6,0,1.1,0,1.7,0.2C41.3,8.9,41.5,9,41.8,9c-0.7,0-1.4,0.3-2,0.7c-1.5,0.8-2.6,1.7-4.3,1.3  C36.7,10.2,37.8,9.3,39.3,8.9z M32.4,10c0.8-0.7,1.6-0.9,2.7-1.1c0.1,0,0.1-0.1,0.1-0.1c0.2,0,0.5,0,0.7,0c0.5,0,0.9,0.2,1.4,0.2  c-2,1.1-3.8,3.6-6.1,2.2C31.6,10.8,32,10.4,32.4,10z M55.9,43.8c-0.1,0.1-0.2,0.2-0.2,0.3c-0.7-0.4-1.5-0.7-1.7-1.6  c0,0,0.1,0,0.1,0c0.2,0.4,0.5,0.7,0.9,0.9c0.1,0.1,0.2,0.1,0.4,0.2C55.5,43.6,55.7,43.7,55.9,43.8C55.9,43.7,55.9,43.7,55.9,43.8z   M56.1,42.3C56.1,42.3,56.1,42.3,56.1,42.3C56.1,42.3,56.1,42.3,56.1,42.3c-0.1-0.1-0.2-0.1-0.3-0.1c0,0,0,0,0,0  c-0.3-0.2-0.5-0.3-0.9-0.2c0,0,0,0,0,0c-0.1,0-0.1,0-0.2,0c0,0-0.1,0-0.1,0c-0.1,0-0.1,0-0.2,0c-15.1-0.6-21.9-17.3-26.2-28.8  c0,0,0,0,0,0c0.7-0.1,1.3-0.3,1.9-0.7c0.1,0.4,0.2,0.7,0.5,1c0.1,0.1,0.1,0,0.1-0.1c-0.2-0.4-0.4-0.7-0.4-1.1  c0.1-0.1,0.2-0.2,0.3-0.2c0.3,1.2,0.7,2.3,1.3,3.4c0.1,0.1,0.3,0,0.3-0.1c-0.3-1.2-0.8-2.4-1.2-3.6c0,0,0,0,0.1-0.1c0,0,0,0,0,0  c1,0.8,2.1,0.7,3.2,0.2c0.3-0.1,0.6-0.3,0.8-0.5c0.3,0.1,0.5,0.2,0.8,0.3c-0.1,0-0.1,0.1-0.1,0.2C35.4,17,39.1,23,42.2,27.2  c0.1,0.2,0.4,0,0.3-0.2c-3.1-4.6-6-9.8-6.4-15.3c0,0,0-0.1,0-0.1c0.7,0.1,1.3,0,2-0.3c0.1,0,0.2-0.1,0.2-0.1c0,1.1,0.2,2.4,0.9,3.2  c0.1,0.1,0.2,0,0.2-0.1c-0.2-1-0.6-1.9-0.7-2.8c0.2,0.1,0.4,0.2,0.6,0.2c0,0-0.1,0.1,0,0.2c0.1,0.7,0.3,1.4,0.5,2.1  c0.1,0.1,0.3,0.2,0.3,0c-0.1-0.7-0.2-1.4-0.5-2.1c0.4,0,0.8,0,1.2-0.1c0,0.1,0,0.1,0.1,0.2c1.1,0.6,2.3,0.8,3.5,0.7  c0.5,0.9,1.4,1.3,2.4,1.4c0.2,1.3,1.3,1.9,2.7,2.1c0,1.2,0.3,2.3,0.7,3.4c0.1,0.2,0.3,0.1,0.3-0.1c-0.2-1.1-0.4-2.2-0.6-3.3  c0,0,0.1,0,0.1,0c-0.1,0.5,0.1,0.8,0.4,1.1c0,0-0.1,0.1-0.1,0.1c0.1,1.2,0.3,2.5,0.9,3.5c0.1,0.1,0.2,0.1,0.2-0.1  c-0.1-1.1-0.5-2.2-0.7-3.4c0.5,0.3,1.1,0.5,1.7,0.6c0.1,0,0.2,0.1,0.4,0.1c-1,1.3-0.1,2.2,1.2,2.8c-0.2,1.4,0.6,2.2,1.8,2.8  c0,0,0,0,0,0c-0.1,1,0.4,1.7,1.1,2.3c-0.2,0.9,0,1.6,0.6,2.2c0,0,0,0,0,0c-0.6,1-0.8,2,0,3c0.1,0.1,0.2,0.3,0.4,0.4  c0.6,2-1.4,3.5-1,5.6c0.1,0.3,0.3,0.6,0.6,0.9c0.6,0.9,0.6,1.6,0.5,2.5c0,0,0,0.1,0,0.1c-0.1,0.4-0.2,0.8-0.4,1.2  c-1.9-5.4-1.7-10.6-2.2-16.3c0-0.2-0.3-0.2-0.3,0c0,5.3-0.3,11,1.9,16c-0.2-0.1-0.5-0.3-0.7-0.4c-3.3-3.1-4.7-7.4-6.3-11.5  c-2-5.1-3.3-10.5-4.7-15.8C45.3,13.9,45,14,45,14.2c1.4,5.9,2.9,11.6,5.1,17.3c1.1,2.9,2.2,6.1,4.3,8.6c-6.3-4.6-9.5-12.5-13.1-19  c0-0.1-0.2,0-0.2,0.1c1.9,4.7,4.2,9.1,7.2,13.3c1.9,2.6,4.4,6.2,7.7,7.4c0.2,0.1,0.3,0.3,0.5,0.4C56.4,42.2,56.2,42.3,56.1,42.3z   M57,43c0,0-0.1-0.1-0.1-0.1c-0.1,0-0.3-0.1-0.4-0.1c0.2-0.1,0.4-0.1,0.5-0.3c0,0,0-0.1,0-0.1c0.2,0,0.3-0.2,0.1-0.4c0,0,0,0,0,0  c0,0,0,0,0-0.1c0.1,0.2,0.2,0.4,0.3,0.6c-0.1,0.2-0.2,0.4-0.3,0.5C57.1,43,57,43,57,43z M59.4,50.1c0,0.2-0.1,0.4-0.1,0.5  c0,0,0,0-0.1-0.1c-0.2-0.1-0.4-0.3-0.6-0.4c-0.1-0.1-0.2-0.1-0.3-0.2c0,0,0-0.1,0-0.1c0.1-0.2-0.1-0.4-0.3-0.3  c-0.2-0.5,0-1.2,0.1-1.7c0.1-0.4,0.1-0.7,0-1c0.5,0.5,0.9,0.9,1.1,1.5c-0.1,0.1-0.1,0.2-0.2,0.2c-0.1,0.2,0.1,0.3,0.3,0.2  c0,0.3,0,0.7-0.1,1.1C59.2,50,59.3,50.1,59.4,50.1z M59.1,44.2c1.6,0.9,1.3,2.2,0.6,3.5c-0.2-0.2-0.4-0.5-0.6-0.7  c-1-1-2-1.6-1.7-3.2c0.1-0.5,0.3-0.9,0.5-1.3c0,0.4,0.1,0.7,0.3,1C58.4,43.8,58.7,44,59.1,44.2z M60.4,37.4c0,0.5-0.1,1-0.2,1.5  c0,0.2-0.1,0.4-0.2,0.6c-0.1,0-0.1,0.2-0.1,0.3c0,0,0,0.1,0,0.1c-0.4-0.6-1-1.2-1.9-2c-1.8-1.4,0.1-3.3,0.6-4.7  c0.1-0.2,0.1-0.4,0.1-0.6c0.3,0.3,0.5,0.6,0.8,0.9c0,0,0,0.1,0.1,0.1c-0.1,0.1,0,0.3,0.2,0.3c0,0,0,0,0,0c0.7,1.1,0.9,2.2,0.8,3.4  C60.4,37.3,60.4,37.3,60.4,37.4z M63.5,45.4c-1.3-1-2-2.5-2.4-4c0.1,0.1,0.2,0.2,0.2,0.3c0.4,0.5,0.7,1.1,1.2,1.6  c0.1,0.1,0.2,0,0.2-0.1c0-0.6-0.4-1.1-0.8-1.5c-0.3-0.3-0.6-0.7-0.9-1C62.6,41.9,64.3,43.5,63.5,45.4z M61,38.8  c0.3,0,0.6-0.1,0.9-0.2c-0.2,0.1-0.3,0.3-0.5,0.4c-0.2,0.2-0.6,0.4-0.8,0.6c0,0,0,0,0,0c0.1-0.3,0.2-0.6,0.2-0.9  C60.8,38.8,60.9,38.8,61,38.8z M60.8,33.5C60.8,33.5,60.8,33.5,60.8,33.5c0.7,0.3,1.3,0.6,1.8,1.2c0.7,0.6,1.1,1.4,1.3,2.3  C62.3,36.4,61.1,35,60.8,33.5z"></path>	<path class="st0" d="M51.8,29.9c-0.8-3.6-2.2-7.1-2.8-10.8c0-0.2-0.3-0.1-0.3,0c0.5,3.7,1.8,7.2,2.8,10.8  C51.6,30.2,51.8,30.1,51.8,29.9z"></path>	<path class="st0" d="M45.8,32.6c-3.2-4.3-6.7-8.2-9.3-12.9c-0.1-0.1-0.2,0-0.2,0.1c2.2,4.7,5.4,9.3,9.3,12.9  C45.7,32.8,45.8,32.7,45.8,32.6z"></path>	<path class="st0" d="M39.4,27.5c-0.1-0.2-0.4,0-0.3,0.2c2,3.2,5,6.1,8.4,8c0.1,0.1,0.3-0.1,0.2-0.2C44.6,33,41.5,30.8,39.4,27.5z"></path>	<path class="st0" d="M54.1,32.7c-0.1-1.3-0.7-2.5-1-3.8c0-0.2-0.3-0.1-0.3,0c0.2,1.3,0.5,2.7,1,3.9C53.9,32.8,54.1,32.8,54.1,32.7z  "></path>	<path class="st0" d="M54.7,56.2c0.4-2.2,0.8-4.3,0.9-6.5c0-0.2-0.3-0.2-0.4,0c-0.3,2.2-0.8,4.3-0.8,6.5  C54.5,56.3,54.7,56.3,54.7,56.2z"></path>	<path class="st0" d="M51.7,51.3c-0.6,0.8-1,1.7-1,2.7c0,0.1,0.1,0.1,0.2,0c0.3-0.9,0.6-1.8,1-2.7C52,51.3,51.8,51.2,51.7,51.3z"></path>	<path class="st0" d="M51.5,53c-0.2,0.7-0.4,1.4-0.3,2.1c0,0.1,0.1,0.1,0.2,0c0.3-0.6,0.2-1.4,0.4-2.1C51.8,52.9,51.6,52.8,51.5,53z  "></path>	<path class="st0" d="M31.5,12.2c0.4,1.6,1,3.3,1.8,4.8c0.1,0.1,0.3,0,0.2-0.1c-0.5-1.6-1.2-3.2-1.8-4.8  C31.6,12.1,31.5,12.1,31.5,12.2z"></path>	<path class="st0" d="M53.6,24.1c0-0.4-0.2-0.8-0.3-1.3c0-0.2-0.3-0.2-0.3,0c0,0.5,0.1,1,0.4,1.3C53.4,24.2,53.6,24.2,53.6,24.1z"></path>	<path class="st0" d="M16.8,27.1c-0.5,0-0.9,0.2-1.3,0.5c-0.2,0.2,0.1,0.5,0.3,0.3c0.3-0.2,0.6-0.4,1-0.4c0.3,0,0.5,0.3,0.8,0.4  c0.1,0,0.2-0.1,0.2-0.2C17.6,27.3,17.2,27.1,16.8,27.1z"></path></g></svg>
