<svg xmlns="http://www.w3.org/2000/svg" xmlns:xlink="http://www.w3.org/1999/xlink" id="Layer_1" x="0px" y="0px" viewBox="0 0 65 65" style="enable-background:new 0 0 65 65;" xml:space="preserve"><style type="text/css">	.st0{fill-rule:evenodd;clip-rule:evenodd;fill:#D6A998;}</style><g>	<path class="st0" d="M35.8,45.3c-0.2-0.9-1.4-1.6-2.3-1.1c-0.6,0.4-1.2,1-1.6,1.7c-0.2-1-0.1-2,0.1-2.9c0.2-0.7,0.8-1.5,1.6-2.1  c0.2,0.4,0.6,0.8,1,1c0.8,0.5,2,0.4,2.1-0.6c0,0.1,0,0.2,0.1,0.3c0,0.1,0.2,0.1,0.2,0c-0.1-2.4-1.7-2-3.2-1  c-0.6-1.2,0.1-2.6,0.9-3.6c1.5-1.8,1.5,0.9,2.8,1.3c1.7,0.5,2.4-2.4,1.6-3.9c0.8-0.2,1.5-1.1,1.8-2.1c0.2,0.1,0.5,0.1,0.8,0  c0.1,0,0.1-0.2,0-0.2c-0.8,0.1-1.4-0.4-1.3-1.3c0.2-0.8,1.1-1,1.7-0.8c0.3,0.1,0.8,0.5,1.1,0.9c-0.4,0.6-0.6,1.3-0.3,2  c0,0.1,0.1,0.1,0.2,0.1c1.2-0.3,1.2-1.2,0.6-2c0.2-0.2,0.4-0.4,0.6-0.6c0.1-0.1,0-0.2-0.1-0.1c-0.3,0.1-0.6,0.3-0.8,0.5  c-0.5-0.5-1.1-1-1.7-1c-0.9-0.1-1.8,0.5-1.8,1.5c0,0.6,0.3,0.9,0.7,1.1c-0.2,0.2-0.3,0.4-0.5,0.7c-0.2,0.2-0.4,0.5-0.5,0.7  c-0.6-0.1-1-0.1-1.3,0c-0.1-0.1-0.3-0.1-0.5-0.2c-0.1,0-0.3,0.1-0.2,0.3c0.3,0.5,0.7,0.7,1,0.7c0,0,0.1,0,0.1,0.1  c0.4,0.7,0.3,1.7,0.1,2.4c-0.3,1.1-1.5,1.5-2.1,0.4c-0.2-0.3-0.3-0.6-0.5-0.9c-0.8-1.4-2.4,1.1-2.7,1.6c-0.6,0.9-0.5,2-0.1,2.8  c-0.8,0.7-1.5,1.5-1.8,2.1c-0.3,0.6-0.4,2.1-0.1,3.5c-1.4,2.6-1.3,6.4,1.3,8c0.2,0.1,0.3-0.2,0.2-0.3c-2.2-1.4-2.3-3.8-1.7-6  c0.1-0.3,0.2-0.7,0.4-1c0.4,1.3,1.2,2.2,2.5,1.5C35.6,47.9,36.2,46.8,35.8,45.3z M43.1,32.7c-0.1-0.6,0-1.1,0.3-1.5  C43.9,31.9,44,32.5,43.1,32.7z M36.6,41c-0.1,0-0.2,0-0.2,0.1c0.1,1.5-1.7,0.5-2.2,0c-0.2-0.1-0.3-0.3-0.4-0.5  C34.9,39.9,36.1,39.7,36.6,41z M32.1,46.9c0-0.1-0.1-0.2-0.1-0.4c0,0,0,0,0,0c0.5-1.3,1.6-1.8,3.3-1.4  C36.9,47.2,33.1,49.5,32.1,46.9z"></path>	<path class="st0" d="M28.7,41.5c0.4-2.2-1.8-4.6-3.7-5.5c0,0,0,0,0,0c-0.1-1.6-1.7-3.1-3.3-3.2c-0.1-2.6-2.7-4-5-4.4  c-0.2,0-0.3,0.3-0.1,0.4c1.6,0.4,3.4,1.1,4.2,2.5c0.3,0.5,0.4,1,0.4,1.6c-0.4,0-0.9,0.2-1.2,0.5c-0.1,0.1-0.1,0.2,0,0.3  c1,1.2,1.7,0.7,1.7-0.5c0.2,0,0.4,0,0.4,0c1.1,0.2,1.9,1.4,2.3,2.4c0.1,0.1,0.1,0.3,0.1,0.4c-1-0.2-2.3,0.1-2.1,1.4  c0.2,0.9,1.9,0.8,2.3,0.1c0.2-0.4,0.3-0.7,0.3-1.1c1.6,1,3.6,2.9,3.3,5c-1.1-0.7-2.4-1-2.7,0.4c-0.2,1,0.7,2.8,1.9,1.8  c0.6-0.5,0.9-1,1.1-1.6c0.1,0.1,0.1,0.1,0.2,0.2c0.6,0.5,0.9,1.4,1.1,2.2c0.7,2.4,0.1,5.2-0.2,7.6c0,0.2,0.2,0.3,0.3,0.1  c0.5-3,1.1-6.4-0.3-9.3C29.5,42.2,29.1,41.8,28.7,41.5z M20.5,33.6c-0.2-0.2,0.3-0.4,0.8-0.5C21.3,33.7,21.1,33.8,20.5,33.6z   M24.5,36.8c-0.1,0.5-0.4,0.7-1,0.7c-0.3-0.2-0.5-0.5-0.8-0.7c0.5-0.7,1.1-0.9,1.7-0.8C24.5,36.3,24.5,36.6,24.5,36.8z M27.6,42.8  c-0.5-0.1-1-0.2-1.5-0.4c0.7-1.2,1.4-1.5,2.2-1C28.1,41.9,27.9,42.4,27.6,42.8z"></path>	<path class="st0" d="M32,29.5c-0.1-0.2-0.3-0.2-0.4,0c-0.4,1.5-2,2.6-2.8,0.6c-0.6-1.5,1.1-2.7,2.3-3.1c0.3-0.1,0.8-0.1,1-0.4  c0.9-1.3,0-3.8-0.6-5c-0.1-0.2-0.5,0-0.4,0.2c0.6,1.2,0.8,2.4,0.8,3.7c0,1.2-0.8,1-1.4,1.3c-1.1,0.5-2,1.2-2.2,2.5  c-0.2,1.1,1,3,2.3,2.4c0.4-0.2,1.4-0.9,1.2-1.4c0.3,1.1,0.8,4.8-1.4,4.7c-0.3,0-0.7,0.2-1,0.3c-2.2,0.6,1,4.9,1.7,5.4  c0.2,0.1,0.4-0.1,0.2-0.2c-0.2-0.2-3.5-4.8-1.6-4.8c0.5,0,1.1-0.2,1.5-0.3C33.2,34.9,32.3,30.7,32,29.5z"></path>	<path class="st0" d="M52.3,36.8c0.2-0.1,0.1-0.3-0.1-0.3c-8.7,1.7-15.4,9.2-17,17.7c0,0.2,0.2,0.3,0.3,0.1  C37.7,45.2,43.6,39.7,52.3,36.8z"></path>	<path class="st0" d="M38.5,22.5c-0.1,0-0.1,0.2,0,0.2c0.1,0.1,0.2,0.1,0.4,0.1c-2.8,3.9-4.6,9-5.8,13.5c0,0.1,0.1,0.1,0.2,0  c1-2.7,2-5.4,3.1-8c0.9-1.9,2-3.7,3-5.6c0.1,0,0.2,0,0.3,0c0.5-0.1,0.8-0.4,1.1-0.8c0.1-0.2-0.1-0.4-0.3-0.3  c-0.2,0.3-0.5,0.5-0.8,0.6c0.1-0.2,0.2-0.4,0.4-0.7c0.1-0.1-0.1-0.2-0.2-0.1c-0.2,0.3-0.5,0.6-0.7,0.9  C38.9,22.4,38.7,22.4,38.5,22.5z"></path>	<path class="st0" d="M27.5,35.4c-0.2-4.4-3.4-9.8-6.8-12.4c-0.1-0.1-0.3,0.1-0.2,0.2c3,3.5,6.2,7.3,6.7,12.1  C27.2,35.6,27.5,35.6,27.5,35.4z"></path>	<path class="st0" d="M23.6,22.6c0.2-0.1,0.3-0.2,0.4-0.3c0.1-0.1,0.3-0.1,0.4-0.2c0,0.1,0,0.1,0,0.2c-0.2,0.3-0.3,0.6-0.4,0.8  c-0.1-0.1-0.1-0.2-0.2-0.2c-0.1-0.1-0.3,0-0.2,0.1c0.1,0.2,0.2,0.3,0.2,0.5c0,0.1,0,0.1,0.1,0.1c1.1,2.2,2.5,4.3,3,6.8  c0,0.1,0.2,0.1,0.2-0.1c-0.4-2.4-1.6-4.8-2.9-6.9c0.1-0.2,0.3-0.4,0.4-0.6c0.1,0,0.2-0.1,0.2-0.2c0,0,0-0.1,0-0.1  c0.1-0.1,0.2-0.3,0.3-0.4c0.2,0.1,0.3,0.2,0.5,0.3c0.2,0.1,0.4,0,0.4-0.2c-0.1-0.3-0.3-0.6-0.4-0.9c0.1-0.2,0.2-0.3,0.3-0.5  c0.1-0.2-0.1-0.4-0.3-0.3c-0.1,0.1-0.2,0.1-0.3,0.2c-0.2-0.3-0.3-0.5-0.5-0.8c-0.1-0.2-0.4-0.1-0.4,0.1c0,0.4,0,0.9,0,1.3  c-0.2,0.2-0.4,0.4-0.7,0.5c-0.1,0.1-0.3,0.2-0.4,0.3C23.1,22.5,23.4,22.8,23.6,22.6z"></path>	<path class="st0" d="M18.9,19.6c0-0.7,0.2-1.3,0.5-2c0.1-0.3,0.3-0.6,0.6-0.8c0.2-0.2,0.4-0.3,0.5-0.5c0-0.1,0-0.2-0.1-0.2  c-0.6-0.1-1.1,0.8-1.3,1.2c-0.4,0.7-0.5,1.4-0.5,2.2C18.5,19.8,18.9,19.8,18.9,19.6z"></path>	<path class="st0" d="M19.5,18.6c-0.1,0.2,0.2,0.4,0.3,0.2c0.2-0.4,0.5-0.7,0.8-1c0.2-0.1,0.4-0.2,0.6-0.2c0.2,0,0.3,0,0.5,0  c0.1,0,0.1-0.1,0.1-0.1c-0.2-0.4-0.8-0.3-1.2-0.1C20.1,17.6,19.7,18.1,19.5,18.6z"></path>	<path class="st0" d="M20,20.1c0.4-0.3,0.8-0.5,1.3-0.6c0.6-0.1,1,0.1,1.4,0.4c0.1,0,0.2,0,0.1-0.1c-0.4-1.4-2.4-0.6-3.1,0  C19.6,20,19.8,20.3,20,20.1z"></path>	<path class="st0" d="M21.7,21.1c0.3,0.2,0.6,0.5,0.9,0.7c0.1,0.1,0.2,0,0.2-0.2c-0.3-0.8-1.3-1.1-2-1.2c-0.2,0-0.3,0.3-0.1,0.3  C21.1,20.8,21.4,20.9,21.7,21.1z"></path>	<path class="st0" d="M19.8,21.1c-0.2-0.2-0.4,0.1-0.2,0.2c0.2,0.2,0.4,0.5,0.6,0.7c0.2,0.2,0.3,0.6,0.5,0.7c0.1,0,0.1,0,0.1-0.1  c0.1-0.3-0.2-0.5-0.3-0.7C20.3,21.6,20,21.3,19.8,21.1z"></path>	<path class="st0" d="M18.6,25.4c1-0.8,0.9-2,0.5-3.1c-0.1-0.2-0.4-0.1-0.3,0.1c0.4,1,0.2,1.9-0.3,2.8  C18.3,25.4,18.5,25.5,18.6,25.4z"></path>	<path class="st0" d="M16.9,23.3c0.3-0.1,0.5-0.4,0.7-0.6c0.1-0.2-0.2-0.4-0.3-0.2c-0.1,0.3-0.3,0.4-0.6,0.5  c-0.2,0.1-0.5,0.1-0.7,0.2c-0.1,0-0.1,0.1,0,0.2C16.3,23.5,16.7,23.4,16.9,23.3z"></path>	<path class="st0" d="M16.4,21.4c0.2-0.1,0-0.4-0.2-0.3c-0.2,0.1-0.5,0.2-0.7,0.1c-0.2,0-0.4-0.2-0.7-0.2c-0.1,0-0.1,0-0.1,0.1  C14.9,21.8,16,21.6,16.4,21.4z"></path>	<path class="st0" d="M15.7,20.1c0.2,0.1,0.3-0.2,0.1-0.3c-0.8-0.3-1-1-1.2-1.8c0-0.1-0.2-0.1-0.3,0C14.2,19,14.8,19.8,15.7,20.1z"></path>	<path class="st0" d="M16.9,19.2c-0.3-0.5-0.5-1-0.6-1.5c-0.1-0.5,0-1,0-1.4c0-0.1-0.1-0.1-0.2,0c-0.6,0.9,0,2.4,0.5,3.2  C16.7,19.5,17,19.4,16.9,19.2z"></path>	<path class="st0" d="M17.5,18c-0.1-0.3-0.1-0.6-0.1-0.9c0-0.3,0.1-0.6,0-0.9c0-0.1-0.1-0.1-0.2,0c-0.3,0.5-0.2,1.3-0.1,1.9  C17.2,18.3,17.5,18.2,17.5,18z"></path>	<path class="st0" d="M40.9,21.5c0.2,0.1,0.4-0.3,0.2-0.4c0,0-0.1,0-0.1-0.1c0,0,0.1,0,0.1,0c0.6,0,1.3-0.3,1.4-1  c0-0.6-0.5-1.1-1.1-1.2c-0.2,0-0.4,0-0.5,0c0,0,0-0.1,0-0.1c-0.1-0.5-0.1-1.1,0-1.6c0.1-0.6,0.5-1,0.7-1.5c0-0.1-0.1-0.2-0.2-0.2  c-1.1,0.6-1.2,2.3-0.9,3.3c0,0,0,0.1,0.1,0.1c-0.4,0.1-0.7,0.4-0.8,0.9C39.7,20.6,40.3,21.3,40.9,21.5z M41.2,20  c0.1-0.2,0.3-0.3,0.5-0.4c0.2,0.1,0.3,0.3,0.3,0.5c0,0.4-0.4,0.6-0.7,0.6C41.2,20.5,41.2,20.2,41.2,20z M41.1,19.4  c-0.4,0.3-0.4,1.1-0.2,1.6c0,0,0,0.1,0.1,0.1C40.1,20.7,40,19.4,41.1,19.4z"></path>	<path class="st0" d="M41.5,18.4c0.2-0.5,0.4-1,0.7-1.5c0.3-0.5,0.9-0.6,1.3-1c0.1,0,0-0.2,0-0.2c-0.6-0.1-1.1,0.4-1.5,0.8  c-0.4,0.5-0.6,1.1-0.8,1.7C41.2,18.5,41.5,18.6,41.5,18.4z"></path>	<path class="st0" d="M42.9,18.4c0.3-0.3,0.7-0.5,1.1-0.5c0.4,0,0.7,0.3,1.1,0.5c0.1,0,0.1-0.1,0.1-0.1c-0.1-0.5-0.6-0.7-1.1-0.7  c-0.6,0-1.1,0.3-1.5,0.6C42.5,18.4,42.7,18.6,42.9,18.4z"></path>	<path class="st0" d="M43.7,19.2c0.4,0,0.8,0.1,1.1,0.4c0.3,0.3,0.5,0.7,0.7,1c0.1,0.1,0.3,0.1,0.3-0.1c-0.1-1.1-1.1-1.7-2.1-1.7  C43.5,18.8,43.5,19.2,43.7,19.2z"></path>	<path class="st0" d="M44.5,22.2c0,0.1,0.1,0.1,0.2,0c0.4-0.8-0.1-1.7-0.6-2.2c-0.2-0.2-0.4,0.1-0.2,0.2c0.2,0.3,0.4,0.6,0.6,0.9  C44.4,21.5,44.4,21.8,44.5,22.2z"></path>	<path class="st0" d="M41.9,24c0,0.1,0,0.2,0.1,0.2c1.3-0.1,1.8-1.7,1.4-2.8c-0.1-0.2-0.4-0.1-0.3,0.1c0.2,0.5,0.1,1-0.1,1.4  C42.7,23.4,42.2,23.6,41.9,24z"></path>	<path class="st0" d="M41.6,22c-0.2,0.4-0.4,0.8-0.7,1.1c-0.3,0.3-0.7,0.4-0.9,0.8c0,0.1,0,0.1,0.1,0.2c0.4,0,0.9-0.4,1.1-0.7  c0.3-0.4,0.5-0.8,0.7-1.3C42,21.9,41.7,21.8,41.6,22z"></path>	<path class="st0" d="M39,21.5c0.2,0,0.1-0.4-0.1-0.4c-0.3,0-0.5,0-0.8-0.2c-0.2-0.2-0.2-0.4-0.3-0.6c-0.1-0.1-0.2-0.1-0.2,0  c-0.1,0.3,0.1,0.7,0.3,0.9C38.2,21.6,38.6,21.6,39,21.5z"></path>	<path class="st0" d="M37.8,18.3c-0.2,0.4,0,0.8,0.2,1.2c0.2,0.4,0.6,0.6,1,0.7c0.2,0.1,0.3-0.2,0.1-0.3c-0.3-0.1-0.6-0.3-0.7-0.6  c-0.2-0.3-0.2-0.7-0.4-1C38,18.2,37.9,18.2,37.8,18.3z"></path>	<path class="st0" d="M16.8,20.9c0.1,0.6,0.6,0.9,1.2,1c0.2,0,0.3-0.3,0.1-0.3c-0.3-0.1-0.7-0.3-0.8-0.6c-0.1-0.3,0.1-0.6,0.4-0.7  c0.3-0.1,0.9-0.2,1.1,0.1c0.2,0.3-0.2,0.5-0.4,0.7c-0.1,0.1,0,0.2,0.1,0.2c0.5,0,0.9-0.5,0.8-1c-0.2-0.6-1-0.6-1.5-0.5  C17.1,19.9,16.7,20.3,16.8,20.9z"></path>	<path class="st0" d="M9.3,38.7c0.1,0.1,0.2,0.3,0.2,0.4c0.1,0.2,0.5,0.1,0.4-0.2c0,0,0,0,0-0.1c0,0,0,0,0,0c0,0,0,0,0,0  c-0.3-0.8-0.7-1.5-1.3-2.1c0-0.1-0.1-0.1-0.1-0.2c0.3-0.3,0.7-0.5,1-0.9c0.2-0.1,0.4-0.2,0.6-0.2c0.3-0.1,0.2-0.5-0.1-0.4  c0,0,0,0,0,0c0-0.1-0.1-0.2-0.2-0.2c-0.4,0-0.9,0-1.3-0.1c0-0.3-0.1-0.7-0.1-1c0,0,0-0.1-0.1-0.1c0-0.1,0-0.2-0.1-0.3  c0-0.2-0.4-0.2-0.4,0c-0.1,0.4-0.2,0.9-0.2,1.4c-0.5,0-1-0.1-1.5-0.1c-0.2,0-0.3,0.2-0.2,0.4c0.4,0.5,0.8,1.1,1.2,1.6  c-0.1,0.3-0.2,0.5-0.4,0.8C6.5,37.5,6.2,37.7,6,38c-0.2,0.2,0.1,0.5,0.3,0.4c0.3-0.2,0.6-0.4,0.8-0.7c0.2-0.2,0.4-0.3,0.6-0.5  C8.2,37.7,8.7,38.3,9.3,38.7z M8.4,35.3c0.3,0,0.5,0,0.8,0c0,0,0,0,0,0c-0.3,0.1-0.5,0.3-0.8,0.5C8.4,35.7,8.4,35.5,8.4,35.3  C8.4,35.3,8.4,35.3,8.4,35.3z M6.5,35.1c0.2,0,0.4,0,0.6,0.1c0,0,0,0.1,0,0.1c0.1,0.2,0.1,0.4,0.1,0.6C6.9,35.7,6.7,35.4,6.5,35.1z  "></path>	<path class="st0" d="M57.6,34.2c-0.4,0.1-0.8,0.2-1.2,0.2c0.1-0.4,0.1-0.7,0.2-1.1c0.1-0.2-0.2-0.4-0.4-0.2c-0.4,0.5-0.8,1-1.2,1.6  c-0.2,0.1-0.5,0.1-0.7,0.1c-0.6-0.5-1.3-0.8-2.2-1c-0.3,0-0.4,0.4-0.1,0.4c0.6,0.1,1.2,0.3,1.7,0.6c-0.4,0.1-0.7,0.1-1.1,0.2  c-0.3,0-0.3,0.4,0,0.4c0.5,0,1-0.1,1.6-0.2c0.1,0.1,0.2,0.1,0.3,0.2c-0.4,0.6-0.7,1.3-1.1,2c-0.1,0.2,0.1,0.5,0.3,0.3  c0.6-0.4,1.2-0.8,1.7-1.2c0.3,0.4,0.6,0.8,1,1.3v0c0,0,0,0,0,0c0.2,0.2,0.5-0.1,0.4-0.3c-0.3-0.6-0.5-1.1-0.5-1.7  c0.5-0.4,1-0.9,1.5-1.4C57.9,34.4,57.8,34.2,57.6,34.2z M54.4,36.9c-0.1,0-0.1,0.1-0.2,0.1c0.2-0.3,0.3-0.6,0.5-0.9  c0,0,0,0.1,0,0.1C54.7,36.4,54.5,36.6,54.4,36.9z M55.5,36.1C55.5,36,55.5,36,55.5,36.1c0-0.2,0.1-0.4,0.2-0.6c0,0,0,0,0,0  c0,0,0,0,0,0c0,0,0,0,0-0.1c0.1-0.3-0.3-0.4-0.4-0.2c0,0,0,0,0,0.1c0,0-0.1,0-0.1,0c0-0.1,0.1-0.1,0.1-0.2c0.2,0,0.4-0.1,0.5-0.1  c0,0.3,0,0.5,0,0.8C55.7,35.9,55.6,36,55.5,36.1z M56.3,35.4c0-0.2,0-0.3,0-0.5c0.2,0,0.4-0.1,0.7-0.1C56.8,35,56.5,35.2,56.3,35.4  z"></path>	<path class="st0" d="M33.3,27.3c0.3-0.3,0.6-0.6,0.9-0.9c0,0,0,0,0,0c0.1,0.3,0.5,0.2,0.4-0.1c0-0.1,0-0.2,0-0.3  c0.1-0.1,0.2-0.2,0.3-0.3c0.3,0,0.5,0.1,0.8,0.2c0.2,0.1,0.4-0.1,0.3-0.3c-0.1-0.2-0.3-0.5-0.4-0.7c0.2-0.2,0.3-0.4,0.4-0.7  c0.1-0.2-0.2-0.5-0.4-0.3c-0.1,0.1-0.3,0.3-0.4,0.4c-0.2-0.5-0.5-0.9-0.6-1.4c-0.1-0.2-0.4-0.2-0.4,0.1c0,0.7-0.1,1.5-0.1,2.2  c-0.1,0-0.2,0.1-0.3,0.1c-0.3,0-0.7,0.1-1,0.2c-0.2,0.1-0.2,0.5,0.1,0.5c0.4,0,0.7-0.1,1-0.2c0.1,0,0.1,0,0.2,0c0,0,0,0.1,0,0.1  c-0.4,0.4-0.8,0.8-1.1,1.3C32.8,27.2,33.1,27.4,33.3,27.3z M34.5,23.8c0.1,0.2,0.2,0.5,0.3,0.7c-0.1,0.1-0.2,0.2-0.4,0.3  C34.5,24.5,34.5,24.2,34.5,23.8z"></path>	<path class="st0" d="M21.6,28.6c0.2,0.1,0.4-0.1,0.3-0.3c-0.2-0.2-0.3-0.5-0.5-0.7c0.1-0.2,0.2-0.4,0.2-0.6  c0.1-0.2-0.2-0.4-0.4-0.2c-0.1,0.1-0.2,0.2-0.2,0.3c-0.2-0.3-0.4-0.6-0.7-0.9c-0.1-0.2-0.4,0-0.3,0.2c0.1,0.4,0.3,0.9,0.4,1.3  c-0.2,0.1-0.3,0.2-0.5,0.3c-0.2,0.1-0.5,0.2-0.7,0.3c-0.2,0.1-0.1,0.5,0.2,0.4c0,0,0,0,0.1,0c0,0,0,0,0,0c0.2-0.1,0.4-0.2,0.6-0.3  c0.2,0,0.4-0.1,0.5-0.1c-0.1,0.2-0.2,0.5-0.4,0.7c-0.1,0.2,0.2,0.4,0.3,0.2c0.1-0.1,0.1-0.2,0.2-0.3c0.1,0.2,0.4,0.1,0.4-0.1  c0-0.1-0.1-0.3-0.1-0.4c0,0,0,0,0,0C21.2,28.4,21.4,28.4,21.6,28.6z"></path>	<path class="st0" d="M10.4,36.3c-0.2,0-0.2,0.3,0,0.3c8.2,2.2,17.1,8,16.6,17.6c0,0.3,0.4,0.3,0.4,0C28.1,45.2,18.9,37.3,10.4,36.3  z"></path>	<path class="st0" d="M15.3,35.2c2.2,1.3,4.2,2.5,6,4.3c1.6,1.6,3,3.4,4.4,5.2c0.1,0.1,0.3-0.1,0.2-0.2c-2.8-3.6-6-8-10.5-9.5  C15.3,34.9,15.2,35.1,15.3,35.2z"></path>	<path class="st0" d="M14.1,36.3c0.2-0.2,0.3-0.5,0.4-0.8c0.1,0.2,0.3,0.4,0.4,0.6c0.1,0.2,0.4,0,0.3-0.2c-0.2-0.3-0.4-0.6-0.6-0.9  c0-0.2,0.1-0.4,0.1-0.6c0.1,0,0.3-0.1,0.4-0.1c0.2,0,0.2-0.4,0-0.4c-0.1,0-0.2-0.1-0.4-0.1c0-0.3,0-0.5,0-0.8  c0-0.3-0.4-0.3-0.4-0.1c-0.1,0.2-0.2,0.4-0.2,0.6c-0.4-0.1-0.8-0.2-1.1-0.2c-0.2,0-0.4,0.3-0.2,0.4c0.3,0.2,0.6,0.4,0.8,0.7  c-0.5,0.3-0.9,0.6-1.2,1.1c-0.2,0.2,0.1,0.4,0.3,0.3c0.5-0.2,0.9-0.6,1.2-1c0.1,0.1,0.1,0.2,0.2,0.2c-0.1,0.4-0.3,0.8-0.3,1.2  C13.8,36.3,14,36.4,14.1,36.3z"></path>	<path class="st0" d="M49.7,45.8c0.2,0.2,0.5,0.4,0.9,0.5c0.2,0.1,0.3-0.3,0.1-0.4c-0.2-0.1-0.3-0.1-0.4-0.2c0.1,0,0.1-0.2,0-0.2  c-0.1,0-0.2,0-0.3,0c0,0-0.1-0.1-0.1-0.1c-0.2-0.3-0.2-0.7-0.2-1c0-0.1-0.2-0.1-0.2,0c-0.2,0.4-0.1,0.8,0,1.1  c-5.4-0.3-12,3.7-12.9,9.1c0,0.3,0.3,0.4,0.4,0.1C38.1,48.5,44.3,46.5,49.7,45.8z"></path>	<path class="st0" d="M14,44.8c-0.4-0.3-0.9-0.5-1.3-0.5c-0.2,0-0.3,0.3-0.1,0.3c0.4,0.1,0.7,0.2,1,0.5c0.3,0.2,0.6,0.6,0.9,0.9  c0.1,0.1,0.3,0,0.3-0.1c-0.1-0.2-0.2-0.4-0.4-0.6c5.7,0.1,9.9,3.6,11.2,9.3c0.1,0.3,0.4,0.1,0.4-0.1C25.1,48.9,19.7,43.7,14,44.8z"></path>	<path class="st0" d="M12.3,41.1c0-0.1,0-0.1-0.1-0.1c-0.4,0-0.7,0.4-0.9,0.8c-0.2,0.4-0.1,0.8,0,1.2c0.1,0.2,0.4,0.1,0.4-0.1  c-0.1-0.3-0.1-0.7,0-1C11.9,41.5,12.2,41.4,12.3,41.1z"></path>	<path class="st0" d="M12.5,43.1c0-0.3,0.1-0.6,0.4-0.9c0.2-0.2,0.5-0.2,0.8-0.3c0.1,0,0.1-0.2,0-0.3c-0.4-0.2-0.8,0.1-1.1,0.3  c-0.3,0.3-0.4,0.8-0.4,1.2C12.2,43.3,12.5,43.3,12.5,43.1z"></path>	<path class="st0" d="M12.9,43.8c0.3-0.2,0.5-0.3,0.9-0.3c0.3,0,0.5,0.2,0.8,0.2c0.1,0,0.2-0.1,0.1-0.2c-0.1-0.3-0.5-0.4-0.8-0.4  c-0.4,0-0.8,0.2-1.2,0.4C12.5,43.6,12.7,43.9,12.9,43.8z"></path>	<path class="st0" d="M12.6,45.7c-0.2-0.1-0.4,0.2-0.2,0.3c1,0.7,0.9,1.8,0.4,2.8c0,0.1,0.1,0.1,0.1,0.1  C14.1,48,13.7,46.4,12.6,45.7z"></path>	<path class="st0" d="M11.6,47.2c0,0.4-0.2,0.8-0.6,1c-0.3,0.2-0.7,0-1.1,0.2c-0.1,0-0.1,0.1-0.1,0.2c0.3,0.4,1,0.2,1.4,0  c0.5-0.3,0.6-0.8,0.6-1.3C12,47,11.7,47,11.6,47.2z"></path>	<path class="st0" d="M9.6,47c-0.2,0-0.5,0-0.7-0.1c-0.2,0-0.4-0.1-0.6-0.2c-0.1,0-0.2,0.1-0.2,0.2c0.3,0.4,1,0.4,1.5,0.4  C9.8,47.4,9.8,47,9.6,47z"></path>	<path class="st0" d="M8.5,45.4c-0.3,0-0.6-0.1-0.8-0.3c-0.2-0.2-0.1-0.6-0.4-0.8c0,0-0.1,0-0.1,0c-0.3,0.3,0,0.8,0.2,1.1  c0.3,0.3,0.7,0.4,1.1,0.4C8.7,45.7,8.7,45.4,8.5,45.4z"></path>	<path class="st0" d="M9,44.3c-0.2-0.3-0.3-0.5-0.4-0.8c-0.1-0.3,0-0.7-0.2-1c0-0.1-0.1-0.1-0.2-0.1c-0.5,0.6,0.1,1.6,0.5,2.1  c0.1,0.1,0.1,0.1,0.2,0.1c-0.2,0.9,0.8,1.6,1.6,1.8c0.2,0.1,0.3-0.3,0.1-0.4c-0.6-0.2-1.4-0.7-1.2-1.5c0.1-0.5,0.6-0.8,1.1-0.8  c0.4,0,0.7,0.2,0.9,0.5c0.2,0.4,0,0.6-0.3,0.8c-0.1-0.2-0.1-0.5-0.3-0.7c-0.1-0.1-0.2-0.1-0.2,0.1c0,0.4,0,0.8,0.2,1.1  c0.1,0.1,0.2,0.1,0.3,0c0.5-0.2,1-0.7,0.8-1.3c-0.2-0.5-0.8-0.9-1.4-0.9C9.8,43.3,9.3,43.7,9,44.3z"></path>	<path class="st0" d="M9.8,41.7c0-0.1-0.1-0.1-0.1-0.1c-0.6,0.3-0.5,1.2-0.3,1.7c0.1,0.2,0.4,0,0.3-0.2c-0.1-0.3-0.1-0.6-0.1-0.8  C9.7,42.1,9.8,41.9,9.8,41.7z"></path>	<path class="st0" d="M52.2,42.9c-0.1,0.2,0.3,0.3,0.4,0.2c0.2-0.3,0.4-0.6,0.7-0.8c0.3-0.2,0.7-0.2,1-0.3c0.1,0,0.1-0.2,0-0.2  C53.4,41.3,52.5,42.1,52.2,42.9z"></path>	<path class="st0" d="M56.1,43.2c0.1,0,0.2-0.1,0.1-0.2c-0.5-0.7-1.7-0.5-2.4-0.3c-0.2,0.1-0.1,0.5,0.1,0.4c0.3-0.1,0.7-0.2,1-0.2  C55.4,43,55.7,43.2,56.1,43.2z"></path>	<path class="st0" d="M55.8,44c-0.2-0.1-0.4,0.2-0.2,0.3c0.4,0.2,0.6,0.5,0.8,0.9c0.2,0.3,0.2,0.7,0.4,0.9c0,0.1,0.1,0,0.2,0  C57.3,45.3,56.4,44.4,55.8,44z"></path>	<path class="st0" d="M55.5,45.5c0.2,0.3,0.3,0.6,0.4,0.9c0.1,0.3,0,0.6,0.1,0.8c0,0.1,0.1,0.1,0.2,0c0.5-0.5,0-1.5-0.3-2  C55.7,45.1,55.4,45.3,55.5,45.5z"></path>	<path class="st0" d="M54.8,47c0.1,0.4,0.1,0.7-0.1,1.1c-0.2,0.3-0.5,0.6-0.7,0.9c-0.1,0.1,0,0.3,0.2,0.2c0.9-0.3,1.2-1.4,1-2.2  C55.1,46.7,54.8,46.8,54.8,47z"></path>	<path class="st0" d="M53.5,48.1c-0.3,0.3-0.6,0.5-0.9,0.7c-0.3,0.2-0.7,0.1-1.1,0.2c-0.1,0-0.1,0.2,0,0.2c0.8,0.5,1.8-0.4,2.2-0.9  C53.9,48.1,53.7,47.9,53.5,48.1z"></path>	<path class="st0" d="M51.8,48.3c-0.4,0.1-0.7,0.2-1.1,0.2c-0.4,0-0.7-0.3-1-0.4c-0.1,0-0.2,0.1-0.2,0.2c0.1,0.4,0.5,0.5,0.9,0.6  c0.5,0.1,1,0,1.5-0.2C52.1,48.6,52,48.2,51.8,48.3z"></path>	<path class="st0" d="M49.8,46.1c0,0-0.1,0-0.1,0c-0.2,0.3,0.1,0.6,0.3,0.8c0.3,0.2,0.6,0.4,1,0.5c0.3,0.1,0.4-0.3,0.1-0.4  c-0.3-0.1-0.6-0.2-0.8-0.4C50.1,46.5,50,46.2,49.8,46.1z"></path>	<path class="st0" d="M50.8,43.4c-0.3,0.2-0.2,0.5-0.2,0.8c0,0.2,0.3,0.2,0.3,0c0-0.2,0-0.4,0.1-0.7C51,43.4,50.9,43.3,50.8,43.4z"></path>	<path class="st0" d="M53.1,45.4c0.1-0.1,0-0.3-0.2-0.3c-0.4,0.1-0.9,0.5-0.9,0.9c0,0.4,0.4,0.6,0.7,0.7c0.8,0.3,1.9,0,2-0.9  c0.2-1.3-1.2-2.2-2.4-1.7c-0.5,0.3-1,0.7-1.1,1.3c-0.2,0.7,0.2,1.3,0.7,1.7c0.1,0.1,0.2,0.1,0.2,0.2c0.2,0.1,0.4-0.2,0.2-0.3  c-0.4-0.3-0.8-0.8-0.7-1.4c0.1-0.4,0.4-0.8,0.7-1c0.9-0.5,1.9,0,1.9,1.1c0,0.6-0.9,0.7-1.3,0.6c-0.2,0-0.4-0.1-0.5-0.3  C52.4,45.8,52.9,45.5,53.1,45.4z"></path>	<path class="st0" d="M28,17.2c0,0,0,0.1,0,0.1c-0.1,0.2,0.2,0.3,0.3,0.2c0.5,0.6,1.2,1.3,1.8,1.8c0,0.1,0,0.2,0,0.2  c0,0.1,0.2,0.1,0.2,0c0,0,0,0,0,0c0.1,0.1,0.1,0.1,0.2,0.2c0,0.2,0,0.3,0,0.5c0,0.1,0.1,0.1,0.2,0c0-0.1,0.1-0.2,0.1-0.3  c0.2,0.1,0.3,0.3,0.5,0.4c0,0,0,0,0,0.1c-0.1,0.2,0.1,0.4,0.3,0.2c0,0,0.1-0.1,0.1-0.1c0.1,0,0.3-0.1,0.2-0.2  c1.5-1.5,2.7-3.5,3.6-5.3c0.5-1,1.5-3.2,0.6-4.3c-1.6-1.8-4.4,1.6-4.7,3.2c-0.1-0.1-0.1-0.2-0.2-0.4c0-0.1-0.1-0.2-0.2-0.2  c-1.3-1.7-4.1-3.1-5-0.6c-0.5,1.3,0.8,2.8,1.5,3.8C27.7,16.8,27.9,17,28,17.2z M30.6,19.1C30.6,19.1,30.6,19,30.6,19.1  c0.1-0.7,0.1-1.3,0.3-1.8c0-0.1,0.1-0.3,0.1-0.4C30.8,17.6,30.7,18.4,30.6,19.1z M31.8,14.2c0.2-1.1,0.8-1.9,1.7-2.6  c0.3-0.2,0.6-0.4,1-0.6c-0.4,0.4-0.6,0.9-1,1.3c0,0,0,0.1,0,0.1c-0.5,1.6-1,3.3-1.5,4.9c0.2-1.2,0.3-2.4,0.4-3.5  c0-0.2-0.2-0.2-0.3,0c0,0.3-0.1,0.5-0.1,0.8c0-0.1-0.2-0.1-0.2,0c0,0,0,0,0,0c0,0,0-0.1,0-0.1C31.7,14.4,31.8,14.3,31.8,14.2z   M31.4,19.5c0.2-0.2,0.3-0.5,0.5-0.8c0,0,0.1,0,0.1-0.1c0.9-1.6,1.2-3.5,1.8-5.1c0.1-0.2-0.3-0.3-0.4-0.1c0,0.1-0.1,0.2-0.1,0.2  c0.1-0.4,0.2-0.8,0.3-1.2c0.4-0.4,0.9-1,1-1.6c0,0,0,0,0,0c0.1,0,0.1,0,0.2-0.1c1.2-0.3,1.2,1.2,1.1,1.9c-0.3,1.7-1.2,3.2-2.3,4.6  c0.2-0.5,0.4-0.9,0.5-1.4c0,0,0.1,0,0.1,0c0.5-0.8,0.9-1.6,1.3-2.5c0.1-0.2-0.2-0.3-0.3-0.2c-0.2,0.5-0.5,0.9-0.7,1.4  c0.3-1.1,0.6-2.2,0.9-3.3c0.1-0.2-0.3-0.3-0.3-0.1c-0.8,2.7-1.6,5.3-2.8,7.8c-0.3,0.3-0.5,0.6-0.7,0.9c-0.1-0.1-0.3-0.3-0.4-0.4  c0,0,0-0.1,0.1-0.1C31.3,19.5,31.4,19.5,31.4,19.5z M31.1,14.2c0.1,0.1,0.1,0.2,0.2,0.4c-0.4,1.2-1.1,2.7-1.2,4  c-0.1-0.1-0.2-0.2-0.3-0.3c0.3-0.4,0.4-1.1,0.6-1.5C30.6,15.9,30.9,15.1,31.1,14.2z M30.4,13.2c-0.4,1.1-0.8,2.1-1.2,3.2  c-0.1,0.2-0.3,0.6-0.1,0.8c0.1,0.2,0.3,0,0.4-0.1c0,0,0,0,0-0.1c0,0,0,0,0,0c0.1-0.1,0.1-0.2,0.1-0.3c0.1-0.4,0.3-0.8,0.4-1.2  c0.2-0.7,0.5-1.4,0.7-2.1c0.1,0.1,0.2,0.2,0.2,0.3c-0.3,0.9-0.5,1.7-0.8,2.6c-0.1,0.4-0.5,1-0.6,1.5c-0.3-0.3-0.6-0.6-0.8-0.9  c0.2-0.5,0.4-1,0.6-1.6c0,0,0,0,0,0c0,0,0,0,0,0c0.2-0.5,0.3-1,0.5-1.5c0.1-0.2-0.2-0.3-0.3-0.1c-0.3,0.8-0.5,1.6-0.8,2.4  c-0.1,0.1-0.1,0.3-0.2,0.4l0,0c0.6-1.3,0.6-3,0.7-4.4c0,0,0-0.1,0-0.1C29.4,12.4,29.9,12.8,30.4,13.2z M27.3,12.2  c-0.2,0.8-0.4,1.9-0.3,2.8c0,0,0,0,0,0c-0.8-1.3-0.7-3.4,1.3-3c0.1,0,0.3,0.1,0.4,0.1c-0.1,0-0.1,0.1-0.1,0.1  c-0.1,0.8-0.2,1.6-0.3,2.4c-0.1,0.6-0.2,1.1-0.3,1.7c-0.2-0.3-0.4-0.6-0.7-0.9c0.1-0.4,0.1-0.8,0.1-1.2c0-0.7,0.1-1.3,0.2-2  C27.7,12.1,27.4,12,27.3,12.2z"></path>	<path class="st0" d="M28,15.6c0.2-0.4,0.2-0.9,0.3-1.4c0.1-0.6,0.1-1.1,0.1-1.7c0-0.2-0.3-0.2-0.3,0c0,0.5-0.1,1-0.1,1.5  c-0.1,0.5-0.2,1.1-0.1,1.6C27.8,15.7,28,15.7,28,15.6z"></path>	<path class="st0" d="M11.6,29.1c1-0.1,2.5-0.3,3.3-0.9c0.1,0,0.2-0.1,0.2-0.3c-0.5-1.6-1.2-3.1-1.9-4.6c-0.5-1-1.1-2.4-2.4-2.6  c-1.7-0.4-0.3,3.7,0.1,4.5c-0.1,0-0.3,0.1-0.4,0.1c-0.1,0-0.2,0-0.2,0.1c-0.4,0.1-0.7,0.3-1.1,0.4c0,0,0,0,0,0  c-0.1-0.2-0.3,0-0.2,0.2c-1,0.6-1.7,1.5-0.6,2.6C9.2,29.4,10.5,29.2,11.6,29.1z M10.5,22.9c-0.1-0.4-0.2-0.9-0.2-1.4  c0.5,0.9,1,1.8,1.6,2.7c-0.4-0.5-0.7-0.9-1.1-1.3c-0.1-0.1-0.3,0-0.3,0.2C10.5,23,10.5,22.9,10.5,22.9z M10.5,23.1  C10.6,23.1,10.6,23.1,10.5,23.1c0.7,0.9,1.3,1.7,1.9,2.5c0.2,0.3,0.4,0.6,0.6,0.9c-0.1-0.1-0.2-0.3-0.3-0.4  c-0.4-0.5-0.8-1.1-1.3-1.6c-0.1-0.2-0.3,0.1-0.2,0.2c0.1,0.1,0.2,0.3,0.3,0.4c-0.1-0.1-0.3,0.1-0.2,0.2c0.6,0.9,1.3,2.1,2.3,2.6  c0.1,0.1,0.3-0.1,0.2-0.2c-0.1-0.1-0.2-0.2-0.2-0.3c0.1,0.1,0.1,0.1,0.2,0.2c0.1,0.1,0.2,0,0.2-0.1c0.1,0.1,0.1,0.2,0.2,0.3  c0.1,0.1,0.2,0,0.2-0.1c-0.3-0.6-0.7-1.2-1.1-1.7c0.1,0.1,0.2,0.2,0.4,0.3c0.1,0.1,0.3,0,0.2-0.2c-0.4-0.8-1.1-1.5-1.6-2.2  c-0.6-0.8-1.1-1.7-1.7-2.6c0,0-0.1-0.1-0.1-0.1c0.3-0.4,1.2,0.4,1.4,0.7c1.3,1.7,2.1,4,2.7,6c-0.5,0.1-1,0.3-1.6,0.4c0,0,0,0,0-0.1  c-0.2-0.5-0.5-0.9-0.8-1.3c-0.3-0.5-0.6-1-0.9-1.5c0,0,0,0,0-0.1c0-0.1,0-0.1,0-0.2C10.9,24.5,10.7,23.8,10.5,23.1z M11,25.6  c0.2,0.5,0.5,1,0.8,1.5c0.3,0.4,0.6,0.9,1,1.2c-0.1,0-0.3,0.1-0.4,0.1c-0.2-0.4-0.5-0.8-0.7-1.2c-0.3-0.5-0.6-1-0.9-1.5  C10.9,25.7,11,25.6,11,25.6z M10.4,25.8c0.3,0.5,0.6,1.1,0.9,1.6c0.1,0.2,0.2,0.4,0.4,0.6c-0.2-0.3-0.5-0.5-0.6-0.8  c-0.3-0.4-0.5-0.9-0.8-1.3c0,0,0,0,0-0.1C10.3,25.9,10.4,25.8,10.4,25.8z M10,26C10,26,10,26,10,26c0.2,0.6,0.4,1,0.7,1.5  c0,0,0,0.1,0.1,0.1c-0.1-0.1-0.2-0.2-0.3-0.3c-0.3-0.4-0.6-0.7-0.9-1.1C9.7,26.1,9.8,26,10,26z M9.2,26.4  C9.2,26.4,9.2,26.3,9.2,26.4c0.4,0.4,0.7,0.8,1,1.2c0.3,0.4,0.7,0.9,1.1,1.1c-0.1,0-0.2,0-0.3,0c0,0,0-0.1,0-0.1  c-0.2-0.4-0.6-0.6-0.9-0.9c-0.4-0.4-0.8-0.7-1.2-1.1c0,0,0,0-0.1,0C9,26.5,9.1,26.4,9.2,26.4z M8.6,26.7c0,0,0,0.1,0.1,0.1  C9,27.2,9.4,27.6,9.8,28c0.3,0.2,0.5,0.6,0.9,0.7c-0.2,0-0.5,0-0.7,0c0,0,0-0.1,0-0.1c-0.1-0.3-0.4-0.6-0.7-0.9  c-0.3-0.3-0.6-0.6-0.9-0.9C8.5,26.8,8.5,26.8,8.6,26.7z M8.2,27.1c0.2,0.3,0.5,0.5,0.7,0.8c0.2,0.2,0.4,0.6,0.7,0.7  c0,0-0.1,0-0.1,0c-0.6-0.1-1.2-0.5-1.4-1.1C8.1,27.4,8.1,27.3,8.2,27.1z"></path>	<path class="st0" d="M11.5,22.2c0.6,1,1.1,2,1.9,2.9c0.1,0.1,0.2,0,0.2-0.1c-0.4-1-1.2-2-1.8-2.9C11.7,21.9,11.4,22.1,11.5,22.2z"></path>	<path class="st0" d="M44.8,30.8c0,0.1,0.2,0.2,0.3,0.1c0-0.1,0-0.1,0.1-0.2c0,0.1,0.1,0.2,0.3,0.2c2.2-0.4,4.6-0.6,6.7-1.5  c0.9-0.4,2.6-1,2.5-2.2c-0.1-1.8-3.4-1.3-4.7-0.7c0.4-1,1.1-2.2,0.5-3.2c-0.6-1-1.4-1.3-2.4-0.8c-1.1,0.5-1.6,1.9-2,3c0,0,0,0,0,0  c0,0,0,0.1,0,0.1c0,0.1-0.1,0.2-0.1,0.2C45.4,27.4,44.8,29.3,44.8,30.8z M53.2,26.6c0.2,0.1,0.3,0.1,0.4,0.2  c-0.4,0.3-0.8,0.6-1.3,1c-0.4,0.3-1,0.7-1.2,1.2c-0.1,0.1,0.1,0.3,0.2,0.2c0.4-0.3,0.8-0.7,1.2-1c0.4-0.4,0.9-0.7,1.4-1.1  c0.1,0.3,0.1,0.6-0.2,0.9c0-0.2-0.1-0.3-0.3-0.2c-0.6,0.4-1.3,0.8-1.8,1.3c0,0,0,0,0,0.1c-0.7,0.3-1.3,0.4-2,0.6  c0.3-0.2,0.6-0.5,0.9-0.7c0.7-0.5,1.3-1,2-1.6c0.1-0.1,0-0.3-0.1-0.3c0.2-0.2,0.5-0.4,0.7-0.5C53.2,26.7,53.2,26.6,53.2,26.6z   M46,27.2c0.5-0.3,0.9-0.7,1.3-1c0.7-0.6,1.3-1.1,1.9-1.8c0.2-0.2-0.1-0.4-0.2-0.2c-0.6,0.5-1.2,1.1-1.8,1.5  c-0.3,0.3-0.7,0.6-1.1,0.8c0.1-0.4,0.2-0.7,0.3-1c0,0,0,0,0,0c0.1,0,0.1-0.1,0.2-0.1c-0.1,0.1-0.2,0.2-0.2,0.3  c0,0.1,0.1,0.2,0.2,0.2c0.5-0.3,0.8-0.8,1.3-1.1c0.5-0.4,1-0.9,1.4-1.3c0,0,0.1-0.1,0-0.1c0.1,0,0.1-0.1,0.2-0.1  c0.2-0.1,0-0.4-0.2-0.3c-0.6,0.3-1.2,0.7-1.8,1.2c-0.3,0.2-0.5,0.4-0.8,0.6c0.4-1,1.1-2,2.2-2.1c1.8-0.2,1.1,2.1,0.9,2.8  c-0.1,0.3-0.2,0.6-0.3,0.8c0,0,0,0,0,0c-0.7,0.1-1.4,0.3-2,0.7c0,0,0.1-0.1,0.1-0.1c0.8-0.6,1.5-1.3,2.2-2c0.2-0.2-0.1-0.5-0.3-0.3  c-0.6,0.6-1.3,1.2-2,1.8c-0.5,0.4-1,0.8-1.5,1.2C46,27.5,46,27.3,46,27.2z M48.2,27.3c0.1,0,0.1-0.1,0.1-0.1c0.4-0.1,0.7-0.3,1-0.5  c0,0,0,0.1-0.1,0.1c0,0.1,0,0.2,0.1,0.2c-1.2,0.4-2.3,1.1-3.3,1.7c-0.2,0.1,0,0.4,0.2,0.3c1.4-0.8,2.9-1.3,4.2-2.1  c0.2-0.1,0-0.3-0.1-0.3c-0.1,0-0.1,0-0.2,0c0.6-0.3,1.3-0.4,2-0.4c0.3,0,0.5,0,0.8,0.1c-0.2,0.1-0.4,0.2-0.5,0.3c0,0,0,0-0.1,0  c-0.4,0.1-0.7,0.3-1.1,0.4c0,0,0,0,0,0c-1.8,0.4-3.6,1.4-5.3,2.1c-0.2,0.1-0.1,0.5,0.1,0.4c0.5-0.2,1.1-0.4,1.6-0.6  c-0.1,0.1-0.2,0.1-0.3,0.2c-0.4,0.2-0.8,0.4-1.2,0.6c-0.2,0.1,0,0.4,0.2,0.3c1.5-0.7,3-1.5,4.4-2.3c0,0,0,0,0,0  c-0.8,0.6-1.7,1-2.5,1.6c-0.1,0.1-0.1,0.3,0.1,0.2c0.3-0.1,0.6-0.2,0.9-0.4c-0.3,0.2-0.6,0.4-0.9,0.6c-1.1,0.2-2.2,0.3-3.2,0.5  c0,0,0,0,0,0c0.2-0.6,0.4-1.3,0.5-1.9C46.6,28.2,47.4,27.7,48.2,27.3z"></path>	<path class="st0" d="M46,35.9c-0.4,0.1-0.4-0.5-0.5-0.7c0-0.1-0.1,0-0.2,0c-0.2,0.2-0.1,0.7,0.1,1c0.2,0.2,0.5,0.3,0.8,0.2  c0.5-0.1,1-0.7,0.6-1.2c-0.6-0.7-1.8-0.7-2.4-0.1c-0.3,0.3-0.4,0.7-0.3,1.1c0,0.2,0.1,0.4,0.2,0.6c-2.8,1.8-5.6,5.3-6.6,8.4  c-0.1,0.2,0.2,0.3,0.3,0.1c1.5-3.4,3.9-5.7,6.5-8.3c0.1,0.1,0.2,0.1,0.3,0c0.1,0,0.1-0.1,0.1-0.2c0-0.2-0.2-0.3-0.3-0.5  c0,0-0.1-0.1-0.1-0.1c-0.1-0.4-0.1-0.7,0.3-1c0.5-0.3,1.2-0.1,1.6,0.2C46.5,35.6,46.2,35.8,46,35.9z"></path>	<path class="st0" d="M24.6,49c0.1,0.2,0.5,0,0.3-0.2c-1.1-2-3-3.8-5.1-4.7c-0.1-0.1-0.2,0.1-0.1,0.2C21.6,45.7,23.3,47,24.6,49z"></path>	<path class="st0" d="M19.3,50.5c-0.2,0-0.3,0.2-0.1,0.3c1.6,0.8,3.6,0.7,4.6,2.3c0.1,0.1,0.3,0,0.2-0.1C23,51.3,21,50.8,19.3,50.5z  "></path>	<path class="st0" d="M43.1,50.8c-0.9-0.1-2.1,0.5-2.8,1c-0.9,0.5-1.6,1.3-1.8,2.3c-0.1,0.2,0.3,0.3,0.4,0.1c0.3-1,1-1.6,1.9-2.1  c0.8-0.5,1.7-0.5,2.4-1C43.2,51,43.2,50.8,43.1,50.8z"></path>	<path class="st0" d="M16.1,49.5c-0.4,1,0.8,2,1.7,2c0.2,0,0.2-0.3,0-0.3c-0.7,0-1.4-0.7-1.3-1.5c0.1-0.6,1.2-0.9,1.7-0.5  c0.3,0.3,0.3,0.8,0.2,1.1c-0.2,0.5-0.5-0.2-0.7-0.4c-0.1-0.1-0.2,0-0.2,0.1c0.1,0.6,0.7,1.3,1.2,0.7c0.4-0.5,0.3-1.4-0.2-1.8  C17.8,48.2,16.4,48.7,16.1,49.5z"></path>	<path class="st0" d="M19.1,35.1c0.5,0.5,1,1,1.4,1.4c0.1,0.1,0.3-0.1,0.2-0.2c-0.4-0.5-0.9-1.1-1.3-1.6c-0.4-0.4-0.9-1-1.4-1.2  c-0.1-0.1-0.3,0.1-0.2,0.2C18.1,34.3,18.6,34.7,19.1,35.1z"></path>	<path class="st0" d="M36,32.9c-0.1,0.2,0.2,0.3,0.3,0.1c1-2.2,2.6-3.8,4.1-5.6c0.1-0.2-0.1-0.4-0.3-0.3  C38.4,28.6,36.8,30.7,36,32.9z"></path>	<path class="st0" d="M42,26.5c-0.4,0.3-0.6,1-0.1,1.4c0.4,0.3,1,0,1.3-0.3c0.6-0.7,0.6-1.9-0.3-2.3c-0.7-0.3-1.6-0.1-2.2,0.5  c-0.8,0.8-0.2,1.8,0.5,2.3c0.2,0.2,0.5-0.1,0.3-0.3c-0.5-0.4-1-1.1-0.6-1.7c0.3-0.4,1-0.6,1.5-0.5c0.6,0.1,0.9,0.5,0.8,1.1  c-0.1,0.4-0.4,0.9-0.8,0.9c-0.6,0-0.2-0.7-0.1-1C42.2,26.5,42.1,26.4,42,26.5z"></path>	<path class="st0" d="M28.8,26.6c0.2-1.8-0.2-3.8-1.2-5.3c-0.1-0.1-0.3,0-0.2,0.1c0.6,1.8,1.2,3.3,1.3,5.2  C28.6,26.7,28.8,26.7,28.8,26.6z"></path>	<path class="st0" d="M35.2,22c0,0.2,0.3,0.2,0.4,0c0.1-1.6,0.7-3,1.2-4.5c0-0.1-0.1-0.2-0.2-0.1C35.5,18.7,35.1,20.5,35.2,22z"></path>	<path class="st0" d="M16.1,30.4c-0.6,0-0.6,0.9,0,0.9C16.6,31.3,16.6,30.4,16.1,30.4z"></path>	<path class="st0" d="M13.7,30c-0.5,0-0.5,0.8,0,0.8C14.2,30.8,14.2,30,13.7,30z"></path>	<path class="st0" d="M13.5,51.8c-0.5,0-0.5,0.8,0,0.8C14,52.6,14,51.8,13.5,51.8z"></path>	<path class="st0" d="M10.3,52.1c-0.4,0-0.4,0.6,0,0.6C10.7,52.7,10.7,52.1,10.3,52.1z"></path>	<path class="st0" d="M13.5,49.9c0.1,0,0.1-0.2,0-0.2C13.3,49.7,13.3,49.9,13.5,49.9z"></path>	<path class="st0" d="M11.8,31.4c0.3,0,0.3-0.5,0-0.5C11.5,30.9,11.5,31.4,11.8,31.4z"></path>	<path class="st0" d="M33.4,29.6c0.5,0.3,0.9-0.1,0.6-0.6C33.7,28.3,32.8,29.2,33.4,29.6z"></path>	<path class="st0" d="M34.6,28c-0.3,0-0.3,0.5,0,0.5C34.9,28.5,34.9,28,34.6,28z"></path>	<path class="st0" d="M44.1,24.2c0.5,0,0.5-0.7,0-0.7C43.7,23.5,43.7,24.2,44.1,24.2z"></path>	<path class="st0" d="M48.4,34.4c-0.6,0-0.6,0.9,0,0.9c0.2,0,0.3,0,0.4-0.1c0.3-0.2,0.3-0.6,0-0.8C48.7,34.4,48.6,34.4,48.4,34.4z"></path>	<path class="st0" d="M47.3,33.8c0.5,0,0.5-0.7,0-0.7C46.8,33.1,46.8,33.8,47.3,33.8z"></path>	<path class="st0" d="M47.8,42.4c0.2,0,0.2-0.3,0-0.3S47.7,42.4,47.8,42.4z"></path>	<path class="st0" d="M44,49.2C44,49.2,44,49.2,44,49.2c0.1-0.1,0.1-0.3,0-0.4c0,0,0,0,0,0c-0.3-0.4-0.9-0.3-0.9,0.2  C43.1,49.5,43.7,49.6,44,49.2z"></path>	<path class="st0" d="M44,51c-0.5,0-0.5,0.7,0,0.7C44.5,51.7,44.5,51,44,51z"></path>	<path class="st0" d="M45.2,49.7c-0.5,0-0.5,0.7,0,0.7C45.7,50.5,45.7,49.7,45.2,49.7z"></path>	<path class="st0" d="M47.7,51c-0.4,0-0.4,0.7,0,0.7C48.1,51.7,48.1,51,47.7,51z"></path>	<path class="st0" d="M24.6,18.4c0.6,0,0.6-0.9,0-0.9C24,17.4,24,18.4,24.6,18.4z"></path>	<path class="st0" d="M22.8,16.6c0.4,0,0.4-0.6,0-0.6C22.4,16,22.4,16.6,22.8,16.6z"></path>	<path class="st0" d="M37.7,16.7c0.5,0,0.5-0.7,0-0.7C37.2,16,37.2,16.7,37.7,16.7z"></path>	<path class="st0" d="M49.8,32c-0.6,0-0.6,0.9,0,0.9C50.4,33,50.4,32,49.8,32z"></path>	<path class="st0" d="M48.8,32.8c-0.5,0-0.5,0.7,0,0.7C49.3,33.5,49.3,32.8,48.8,32.8z"></path>	<path class="st0" d="M50.5,35.2c0.4,0,0.4-0.6,0-0.6C50,34.5,50,35.2,50.5,35.2z"></path>	<path class="st0" d="M52,32.4c0.4,0,0.4-0.6,0-0.6C51.6,31.8,51.6,32.4,52,32.4z"></path>	<path class="st0" d="M48.7,42.6c0.6,0,0.6-0.9,0-0.9C48.1,41.7,48.1,42.6,48.7,42.6z"></path>	<path class="st0" d="M46.9,43.4c-0.5,0-0.5,0.8,0,0.8C47.4,44.2,47.4,43.4,46.9,43.4z"></path>	<path class="st0" d="M47,41.3c-0.4,0-0.4,0.6,0,0.6C47.4,41.9,47.4,41.3,47,41.3z"></path>	<path class="st0" d="M15.7,41.5c-0.4,0-0.4,0.7,0,0.7C16.1,42.2,16.1,41.5,15.7,41.5z"></path>	<path class="st0" d="M9.5,40.8c-0.3,0-0.3,0.5,0,0.5C9.8,41.3,9.8,40.8,9.5,40.8z"></path>	<path class="st0" d="M7.8,50.6c-0.4,0-0.4,0.6,0,0.6C8.2,51.2,8.2,50.6,7.8,50.6z"></path>	<path class="st0" d="M8.9,49.3c-0.5,0-0.5,0.7,0,0.7C9.4,50.1,9.4,49.3,8.9,49.3z"></path>	<path class="st0" d="M24,31.5c-0.4,0-0.4,0.7,0,0.7S24.5,31.5,24,31.5z"></path>	<path class="st0" d="M27.9,46.1c-0.3,0.1-0.4,0.4-0.3,0.7c0.2,0.3,0.6,0.3,0.8,0C28.6,46.4,28.3,46,27.9,46.1z"></path>	<path class="st0" d="M28.4,44.4c-0.4,0-0.4,0.7,0,0.7S28.9,44.4,28.4,44.4z"></path>	<path class="st0" d="M26.8,45.8c-0.2,0-0.2,0.3,0,0.3C27,46.1,27,45.8,26.8,45.8z"></path>	<path class="st0" d="M33.1,50.3c-0.5,0-0.5,0.8,0,0.8C33.6,51.1,33.6,50.3,33.1,50.3z"></path>	<path class="st0" d="M33.3,52c-0.4,0-0.4,0.7,0,0.7C33.7,52.6,33.7,52,33.3,52z"></path>	<path class="st0" d="M38.4,40.2c-0.4,0-0.4,0.6,0,0.6C38.8,40.8,38.8,40.2,38.4,40.2z"></path>	<path class="st0" d="M32,38.7c0.4,0,0.4-0.6,0-0.6C31.6,38.1,31.6,38.7,32,38.7z"></path>	<path class="st0" d="M35.6,43.6v0.1c0,0.6,0.9,0.6,0.9,0v-0.1C36.5,43.1,35.6,43.1,35.6,43.6z"></path>	<path class="st0" d="M29.4,33.6c-0.6,0-0.6,0.9,0,0.9C30,34.4,30,33.6,29.4,33.6z"></path>	<path class="st0" d="M28.3,33.6c0.4,0,0.4-0.6,0-0.6C27.9,33,27.9,33.6,28.3,33.6z"></path>	<path class="st0" d="M24.6,33.6c0.3,0,0.3-0.5,0-0.5C24.2,33,24.2,33.6,24.6,33.6z"></path>	<path class="st0" d="M24.5,12.4c0.3,0,0.3-0.5,0-0.5C24.2,11.9,24.2,12.4,24.5,12.4z"></path>	<path class="st0" d="M22.7,13.4c0.4,0,0.4-0.7,0-0.7C22.2,12.8,22.2,13.4,22.7,13.4z"></path>	<path class="st0" d="M7.4,32.1c0.4,0,0.4-0.6,0-0.6C7,31.5,7,32.1,7.4,32.1z"></path>	<path class="st0" d="M6.2,30c0.3,0,0.3-0.5,0-0.5C5.8,29.5,5.8,30,6.2,30z"></path>	<path class="st0" d="M48,20.6c0.6,0,0.6-0.9,0-0.9C47.4,19.7,47.4,20.6,48,20.6z"></path>	<path class="st0" d="M46.6,18.6c0.4,0,0.4-0.7,0-0.7C46.2,18,46.2,18.6,46.6,18.6z"></path>	<path class="st0" d="M46.5,15.6c0.4,0,0.4-0.6,0-0.6S46.1,15.6,46.5,15.6z"></path>	<path class="st0" d="M4.5,42c-0.5,0-0.5,0.7,0,0.7C5,42.8,5,42,4.5,42z"></path>	<path class="st0" d="M57.9,40.2c-0.5,0-0.5,0.7,0,0.7C58.4,41,58.4,40.2,57.9,40.2z"></path>	<path class="st0" d="M58.6,42.4c-0.4,0-0.4,0.6,0,0.6C59,43,59,42.4,58.6,42.4z"></path>	<path class="st0" d="M60.5,42.3c-0.5,0-0.5,0.7,0,0.7C61,43,61,42.3,60.5,42.3z"></path></g></svg>
